<svg width="124" height="124" viewBox="0 0 124 124" fill="none" xmlns="http://www.w3.org/2000/svg">
<path d="M43.3577 37.4759C43.3577 37.4759 35.8419 37.4669 35.86 37.4759C49.3423 42.0378 58.9087 53.438 62.0885 64.54H21V46.3829H30.2096V55.3079H46.3613C41.1761 49.3594 30.1463 44.1426 21 44.4407V28.2754H43.3577V37.4759Z" fill="white"/>
<path d="M88.335 37.4558C75.8282 41.8054 65.9773 51.8687 61.998 64.538H91.438V55.3104H77.7659C81.8309 50.4098 89.7939 46.1234 93.7866 45.5859V64.538H103.127V25.6401H93.7866V28.2734H80.7785V37.4739L88.335 37.4558Z" fill="white"/>
<path d="M53.6018 25.8934H70.544V47.5375C73.5385 44.2809 76.628 41.9684 79.618 40.1707V17H44.5187V40.1707C47.8746 42.1626 50.9053 44.6287 53.5837 47.4878L53.6018 25.8934Z" fill="white"/>
<path d="M21 69.7773H56.3342C57.355 69.7773 57.355 71.3582 56.3342 71.3582H21V75.0122H53.4345C57.6486 75.0122 57.1337 78.8559 57.1337 78.8559V107.849H61.2981V71.846C61.2981 69.154 59.7037 66.6066 57.1337 66.0962H21V69.7773Z" fill="#C7A230"/>
<path d="M21 80.2716H50.5573C51.5781 80.2716 51.5781 81.8569 50.5573 81.8569H21V85.5561H47.6576C51.8807 85.5561 51.3568 89.436 51.3568 89.436V107.851H55.5031V81.5543C55.5031 78.3475 56.0045 76.6221 51.8536 76.6221H21V80.2716Z" fill="#C7A230"/>
<path d="M21 90.7696H44.7443C45.8103 90.7696 45.8419 92.3595 44.7443 92.3595H21V96.0542H41.9033C46.14 96.0542 45.598 99.9385 45.598 99.9385V107.852H49.7624V92.0659C49.7624 88.9133 50.2367 87.1201 46.1039 87.1201H21V90.7696Z" fill="#C7A230"/>
<path d="M103.127 66.0979H67.0027C64.4327 66.6083 62.8428 69.1557 62.8428 71.8477V107.85H67.0027V78.8576C67.0027 78.8576 66.4787 75.0139 70.6973 75.0139H103.127V71.3554H67.7976C66.7678 71.3554 66.7678 69.779 67.7976 69.779H103.127V66.0979Z" fill="#C7A230"/>
<path d="M103.128 76.624H72.2919C68.1501 76.624 68.6244 78.3449 68.6244 81.5563V107.848H72.7843V89.4379C72.7843 89.4379 72.2468 85.5536 76.4834 85.5536H103.128V81.8589H73.5657C72.5449 81.8589 72.5449 80.2735 73.5657 80.2735H103.128V76.624Z" fill="#C7A230"/>
<path d="M103.128 87.1216H78.0237C73.9 87.1216 74.3697 88.9147 74.3697 92.0674V107.849H78.5251V99.94C78.5251 99.94 78.0011 96.0556 82.2242 96.0556H103.128V92.361H79.3787C78.2947 92.361 78.3308 90.7711 79.3787 90.7711H103.128V87.1216Z" fill="#C7A230"/>
</svg>
