<svg width="124" height="124" viewBox="0 0 124 124" fill="none" xmlns="http://www.w3.org/2000/svg">
<path d="M46.8934 70.278L46.8585 70.2431C43.7498 67.0471 39.995 61.7904 37.6199 54.211C37.6199 54.211 37.5151 53.9141 37.3754 53.9141C37.2357 53.9141 37.1309 54.2459 37.1309 54.2459C31.9964 70.9067 19.5619 77.5082 15.3006 78.9577C15.0736 79.045 15.0561 79.2372 15.0911 79.3419C17.2566 85.2099 20.5224 90.5714 24.5916 95.182C24.6615 95.2518 24.8186 95.3042 25.0457 95.182C38.3534 87.6025 45.9154 72.7754 46.9283 70.7146C47.0331 70.4876 46.9283 70.3479 46.8759 70.278" fill="#FFD400"/>
<path d="M77.0891 70.278L77.1415 70.2431C80.2501 67.0471 84.0049 61.7904 86.38 54.211C86.38 54.211 86.4848 53.9141 86.6245 53.9141C86.7817 53.9141 86.869 54.2459 86.869 54.2459C92.0035 70.9067 104.421 77.5082 108.682 78.9577C108.909 79.045 108.926 79.2372 108.891 79.3419C106.726 85.2099 103.477 90.5714 99.3909 95.182C99.321 95.2518 99.1638 95.3042 98.9543 95.182C85.6291 87.6025 78.0496 72.7754 77.0542 70.7146C76.9494 70.4876 77.0542 70.3479 77.0891 70.278Z" fill="#FFD400"/>
<path d="M86.1006 105.521C67.2568 87.2007 62.3319 54.4903 62.3319 54.4903C62.3319 54.4903 62.262 53.9314 62.0175 53.9314C61.773 53.9314 61.6857 54.4903 61.6857 54.4903C61.6857 54.4903 56.7433 87.2007 37.9169 105.521C37.9169 105.521 37.7248 105.695 37.9169 105.818C44.955 109.695 53.0584 111.93 61.6682 112H62.3144C70.9243 111.93 79.0276 109.695 86.0657 105.818C86.2578 105.678 86.0657 105.521 86.0657 105.521" fill="#FFD400"/>
<path d="M88.074 19.3172C87.7771 19.1775 87.7771 19.5617 87.7771 19.5617C87.812 25.4646 88.5979 58.0179 111.354 67.9375C111.563 68.0423 111.633 67.8677 111.633 67.8153C111.843 65.8942 112 63.9557 112 61.9822C112 43.9068 102.43 28.1017 88.0915 19.2997" fill="#FFD400"/>
<path d="M35.926 19.3172C36.2054 19.1775 36.2054 19.5617 36.2054 19.5617C36.1879 25.4646 35.3846 58.0179 12.6287 67.9375C12.4191 68.0423 12.3667 67.8677 12.3493 67.8153C12.1222 65.8942 12 63.9557 12 61.9822C12 43.9243 21.5878 28.1192 35.926 19.3172Z" fill="#FFD400"/>
<path d="M85.0877 17.6235C78.591 14.2354 71.256 12.2445 63.467 12C63.2574 12 63.2749 12.262 63.2749 12.262C63.2749 22.1816 64.8816 45.4265 72.6357 61.1093C72.6881 61.284 72.8278 61.2141 72.8977 61.1792L72.9326 61.1443C73.701 60.3234 85.7164 47.1205 85.2623 17.9553C85.2449 17.7632 85.1401 17.6409 85.0877 17.6235Z" fill="#FFD400"/>
<path d="M38.9124 17.6235C45.4091 14.2354 52.744 12.2445 60.5156 12C60.7252 12 60.7077 12.262 60.7077 12.262C60.7077 22.1816 59.101 45.4265 51.3469 61.1093C51.2771 61.284 51.1373 61.2141 51.1024 61.1792C51.0849 61.1792 51.0675 61.1443 51.05 61.1443C50.2816 60.3234 38.2662 47.1205 38.7378 17.9553C38.7552 17.7632 38.8425 17.6409 38.9124 17.6235Z" fill="#FFD400"/>
</svg>
