<svg width="124" height="124" viewBox="0 0 124 124" fill="none" xmlns="http://www.w3.org/2000/svg">
  <path
    d="M90.2597 52.2848L61.5 14L32.7403 52.2848C27.8933 58.7552 26 64.4 26 70.5248C26 79.8848 30.6197 88.2848 38.8936 94.16L61.5 110L84.1064 94.16C92.3803 88.2848 97 79.8752 97 70.5248C97 64.4 95.1067 58.7552 90.2597 52.2848ZM56.8803 92.6048V98.2496L43.04 88.64C36.5269 84.2048 32.8633 77.6 32.8633 70.88C32.8633 67.4048 33.81 64.0448 35.4667 60.9152C36.1767 62.9504 37.36 64.9952 39.9633 68L54.6367 84.56C57.0033 87.3248 56.8803 88.9952 56.8803 92.6048ZM45.9936 64.4C42.3205 60.32 41.62 58.0448 41.62 55.6448C41.62 53.36 42.0933 51.3248 44.9333 47.6L61.5 25.76L78.0667 47.6C80.7931 51.3248 81.38 53.36 81.38 55.6448C81.38 58.0448 80.67 60.3296 77.0064 64.4L61.5 81.92L45.9936 64.4ZM79.96 88.64L66.1197 98.24V92.5952C66.1197 88.9952 66.0061 87.3152 68.3728 84.5504L83.0461 67.9904C85.6495 64.9952 86.8328 62.9504 87.5428 60.9056C89.1995 64.0256 90.1461 67.3856 90.1461 70.8704C90.1367 77.6 86.4731 84.1952 79.96 88.64Z"
    fill="white" />
</svg>