<svg width="124" height="124" viewBox="0 0 124 124" fill="none" xmlns="http://www.w3.org/2000/svg">
<path d="M59.9419 89.0196C58.4661 89.1209 57.0542 89.6302 55.8816 90.4843C54.7165 91.3331 53.845 92.4912 53.3783 93.8107C52.9125 95.1238 52.876 96.5394 53.2735 97.8724C53.6681 99.2059 54.4789 100.399 55.6042 101.304C56.7345 102.208 58.1195 102.779 59.5886 102.948C61.0577 103.116 62.5469 102.875 63.8726 102.252C65.193 101.635 66.2897 100.66 67.0234 99.451C67.8807 98.0429 68.1871 96.3941 67.8889 94.7936C67.5907 93.1932 66.707 91.743 65.3925 90.6973C63.8783 89.4834 61.9209 88.8809 59.9419 89.0196Z" fill="#111111"/>
<path d="M90.6382 32.3869C85.5842 27.5008 79.2842 24.1378 72.4459 22.6757C70.2927 22.2554 68.1067 22.0302 65.9139 22.0028C59.3296 21.9217 52.5052 23.6291 45.7208 27.2462L38.6039 31.0939L22 40.5963L48.2572 86.0085L58.2245 80.2541L37.6743 44.6933C37.6743 44.6933 50.7783 37.6584 51.003 37.5275C56.9552 34.1078 63.9937 33.183 70.6113 34.951C73.8826 35.8249 76.9537 37.3372 79.652 39.4031C82.3387 41.4583 84.5981 44.03 86.301 46.9707C87.9972 49.8953 89.0991 53.1334 89.5421 56.4948C89.985 59.8563 89.7601 63.2734 88.8805 66.5457C88 69.8243 86.485 72.8933 84.4233 75.5746C82.3503 78.2682 79.7742 80.5231 76.8416 82.2107C76.4107 82.4693 71.9903 85.024 71.5224 85.2733L77.131 95C77.7097 94.7196 81.9484 92.3082 82.5179 91.9966L83.1458 91.6227C85.2346 90.342 87.2433 88.9322 89.1607 87.4012C94.8255 82.4796 98.8817 75.9343 100.793 68.63C102.691 61.3487 102.344 53.6543 99.799 46.5782C99.1767 44.9951 98.4634 43.4503 97.6627 41.9516C95.802 38.4289 93.4347 35.2055 90.6382 32.3869Z" fill="#111111"/>
</svg>
