<svg width="124" height="124" viewBox="0 0 124 124" fill="none" xmlns="http://www.w3.org/2000/svg">
<path d="M22.1463 81.2617C22.1463 77.0186 22.2159 72.8451 22.1463 68.602C22.1463 67.2108 22.6332 66.863 23.8853 66.863C26.2503 66.9326 28.6153 66.863 30.9803 66.9326C32.3715 67.0021 32.7193 66.4456 32.7193 65.124C32.6497 62.4808 32.6497 59.8375 32.7193 57.1943C32.7193 56.0118 32.3715 55.4553 31.1194 55.5249C28.6153 55.5945 26.1808 55.5249 23.6766 55.5945C22.5637 55.5945 22.2159 55.2467 22.2159 54.1337C22.2855 49.195 22.2855 44.2563 22.2159 39.2481C22.2159 38.0656 22.8419 37.5787 23.6766 37.0222C33.9018 31.0401 44.1965 25.1276 54.4217 19.1456C54.6304 19.0064 54.839 18.9369 54.9782 18.7978C57.9692 16.0154 60.5429 16.7806 63.8121 18.9369C75.8458 26.797 88.1578 34.379 100.331 41.9609C101.513 42.726 102 43.4912 102 44.9519C101.93 52.4643 101.93 60.0462 102 67.5586C102 68.9498 101.583 69.4367 100.191 69.3671C97.6873 69.2976 95.2528 69.3671 92.7487 69.2976C91.6357 69.2976 91.0792 69.5758 91.1488 70.8279C91.2184 73.6102 91.2184 76.323 91.1488 79.1054C91.1488 80.2879 91.5662 80.7052 92.7487 80.7052C95.2528 80.6357 97.6873 80.7052 100.191 80.7052C101.235 80.7052 101.722 80.9835 101.652 82.166C101.583 86.0613 101.583 89.9566 101.652 93.8519C101.652 95.1735 101.096 95.5908 99.9828 95.9386C89.8272 99.1384 79.6716 102.338 69.516 105.677C67.2901 106.372 65.5511 106.233 63.4643 105.399C55.6737 102.269 47.8831 99.2775 40.0925 96.2169C39.2578 95.8691 38.3536 95.73 37.4493 95.73C32.928 95.6604 28.4066 95.6604 23.9549 95.73C22.355 95.7995 21.9377 95.1735 22.0072 93.7128C22.2159 89.5392 22.1463 85.3657 22.1463 81.2617ZM28.4066 45.3693C29.1718 45.1606 29.7978 45.0215 30.4238 44.8128C38.1449 42.2391 45.8659 39.735 53.587 37.0222C55.3955 36.3962 56.7867 36.6049 58.317 37.6482C62.7688 40.848 67.3596 43.9085 71.9505 46.9691C73.4808 48.0125 73.8286 49.3341 72.8548 51.0036C71.7419 52.9512 70.4898 53.3686 68.6813 52.3252C66.8032 51.2122 64.9946 49.9602 63.1166 48.7777C61.0298 47.4561 59.569 47.8734 58.0387 50.0993C56.6476 52.1165 56.8562 53.5772 58.8735 54.9684C63.6035 58.3073 68.403 61.5765 73.2026 64.7762C73.8286 65.1936 74.7329 65.4718 75.5676 65.4718C81.7583 65.5414 87.9491 65.4718 94.1398 65.5414C95.4615 65.5414 96.0179 65.2631 96.0179 63.8024C95.9484 58.3768 95.9484 52.8817 96.0179 47.4561C96.0179 46.4127 95.6701 45.8562 94.8354 45.2997C83.2191 38.4134 71.5332 31.4575 59.9168 24.5016C58.8039 23.806 57.8996 23.8756 56.8562 24.5016C48.0918 29.649 39.3274 34.7963 30.563 39.9437C27.7806 41.4044 27.5719 41.9609 28.4066 45.3693ZM75.7763 85.2266C69.516 85.2266 63.2557 85.2266 56.9954 85.2266C54.9782 85.2266 53.9348 83.9745 53.9348 81.8182C54.0043 79.801 54.7695 79.0358 56.8562 79.0358C59.8473 79.0358 62.8383 79.1054 65.8294 78.9663C68.0552 78.8967 69.0986 77.6446 69.0986 75.3492C69.0986 73.332 67.5683 71.7321 65.6207 71.7321C53.6565 71.7321 41.6228 71.7321 29.6587 71.7321C28.4762 71.7321 28.0588 72.0799 28.0588 73.2624C28.1284 78.4793 28.1284 83.7658 28.0588 88.9827C28.0588 90.2348 28.4762 90.6522 29.7283 90.6522C33.6931 90.5826 37.7275 90.5826 41.6924 90.6522C42.5967 90.6522 43.5009 90.7913 44.3356 91.1391C51.1524 93.7823 57.9692 96.4256 64.7164 99.1384C66.1076 99.6948 67.2205 99.6948 68.6117 99.2775C77.0979 96.4256 85.6536 93.6432 94.2094 90.8608C95.7397 90.3739 96.5048 89.6783 96.2266 88.0089C96.157 87.6611 96.157 87.3133 96.2266 86.9655C96.3657 85.6439 95.8788 85.2266 94.5572 85.2266C88.2273 85.2961 81.967 85.2266 75.7763 85.2266Z" fill="white"/>
</svg>
