<svg width="124" height="124" viewBox="0 0 124 124" fill="none" xmlns="http://www.w3.org/2000/svg">
<path d="M98.8699 72.2661C100.596 72.2661 102 70.8423 102 69.1047V44.6307C102 43.5155 101.42 42.4885 100.475 41.9154L59.6878 17.4387C58.7217 16.863 57.5057 16.8526 56.5216 17.4154L23.587 36.3577C22.608 36.9256 22 37.9578 22 39.0989V57.2684H31.4136V65.9434H25.143C23.4092 65.9434 22 67.362 22 69.1047V94.3698C22 95.2075 22.3426 96.0011 22.9274 96.6053C23.5174 97.1863 24.3135 97.5208 25.143 97.5208H35.636C36.5351 97.8113 64.9872 106.857 64.9872 106.857C65.5668 107.039 66.198 107.049 66.7931 106.878L99.7252 97.4041C101.07 97.0203 102 95.7832 102 94.3698V83.3193C102 82.479 101.668 81.6724 101.088 81.0785C100.495 80.4924 99.6994 80.1631 98.8699 80.1631H92.5916V72.2661H98.8699ZM95.7243 86.478V91.9865C91.9063 93.0887 67.566 100.086 65.9713 100.545C64.2787 100.003 37.0633 91.3563 37.0633 91.3563C36.7696 91.2551 36.4476 91.2162 36.1255 91.2162H28.2809V72.2661H65.1391C67.3083 72.2661 69.0628 74.04 69.0628 76.2081C69.0628 78.3788 67.3083 80.1631 65.1495 80.1631H56.5191C54.7852 80.1631 53.3735 81.5713 53.3735 83.3193C53.3735 85.062 54.7852 86.478 56.5191 86.478H95.7243ZM75.0886 65.9434C73.7103 65.1083 57.6268 55.3026 57.6268 55.3026C56.7251 54.7657 56.0991 53.8995 55.8492 52.87C55.7771 52.5613 55.7281 52.2424 55.7281 51.9285C55.7281 51.2154 55.9239 50.5151 56.2975 49.8979C56.8437 48.985 57.6912 48.3574 58.7217 48.1007C59.729 47.8621 60.7827 48.0073 61.6741 48.5649L67.4423 52.0712C68.9211 52.9685 70.8558 52.4965 71.7395 51.0079C72.0538 50.4996 72.2006 49.9238 72.2006 49.3714C72.2006 48.2978 71.6622 47.2578 70.6858 46.6613L55.7874 37.5844C55.0145 37.1175 54.0922 37.006 53.2266 37.2757C53.2266 37.2757 34.2964 43.1913 28.2809 45.0819V40.9377C31.0065 39.366 55.3159 25.3875 58.0468 23.8107C60.842 25.4887 93.0089 44.7915 95.7243 46.4279V65.9434H75.0886Z" fill="white"/>
</svg>
