<svg width="124" height="124" viewBox="0 0 124 124" fill="none" xmlns="http://www.w3.org/2000/svg">
<g clip-path="url(#clip0_5_1676)">
<path d="M119.594 62.3914C119.594 73.7018 116.239 84.758 109.955 94.1619C103.67 103.566 94.7387 110.895 84.289 115.223C73.8394 119.551 62.3411 120.683 51.2481 118.475C40.1551 116.268 29.9656 110.822 21.9683 102.824C13.9709 94.8257 8.5247 84.6359 6.31843 73.5428C4.11216 62.4497 5.24488 50.9514 9.57336 40.502C13.9018 30.0527 21.2317 21.1215 30.636 14.8378C40.0403 8.55419 51.0967 5.20032 62.4071 5.20032C77.5745 5.20135 92.1202 11.2273 102.845 21.9526C113.569 32.6779 119.594 47.2241 119.594 62.3914Z" fill="white"/>
<path d="M91.2295 91.9926C88.3129 90.2591 84.9962 89.3125 81.604 89.2452C78.2497 89.4151 74.9774 90.3424 72.0327 91.9577C68.8612 93.6874 65.3314 94.657 61.7214 94.7904C58.4393 94.6437 55.236 93.7377 52.3633 92.1437C49.1787 90.4027 45.6324 89.4275 42.0054 89.2956C38.6555 89.4574 35.383 90.3586 32.4225 91.9345C29.2293 93.6389 25.6896 94.5931 22.0724 94.7245H21.4214C21.8476 95.2515 22.2778 95.7707 22.7234 96.2745C26.3346 96.0409 29.8567 95.0521 33.0619 93.3721C35.819 91.8799 38.8745 91.022 42.0054 90.8611C45.402 90.9968 48.7197 91.9258 51.6929 93.5736C54.7724 95.2587 58.1986 96.2121 61.7059 96.3597C65.5429 96.2315 69.2979 95.2155 72.676 93.3915C75.4143 91.8739 78.4621 90.9993 81.5885 90.834C84.7326 90.9053 87.804 91.7933 90.501 93.4109C93.7348 95.319 97.4142 96.3414 101.169 96.3752C101.626 95.8521 102.079 95.3096 102.521 94.7632C102.091 94.7942 101.68 94.8136 101.239 94.8136C97.7078 94.7787 94.2482 93.8166 91.2063 92.0236" fill="#887369"/>
<path d="M81.6036 92.2091C78.2503 92.3776 74.979 93.3051 72.0362 94.9216C68.8628 96.6461 65.334 97.6142 61.7248 97.7504C58.4425 97.6041 55.2384 96.701 52.3628 95.1115C49.1806 93.3633 45.6334 92.384 42.005 92.2517C38.6538 92.4148 35.3807 93.3201 32.4221 94.9022C29.7528 96.2724 26.8701 97.1791 23.8971 97.5837C24.3427 98.0565 24.7922 98.5331 25.2533 98.9826C27.9574 98.4532 30.5774 97.5603 33.0421 96.3282C35.7988 94.8349 38.8545 93.977 41.9856 93.8172C45.3827 93.9501 48.701 94.8792 51.6731 96.5297C54.7546 98.2158 58.1841 99.1666 61.6938 99.3081C65.5287 99.1822 69.2817 98.166 72.6562 96.3399C75.3958 94.8259 78.4431 93.9528 81.5687 93.7862C84.7139 93.8535 87.7867 94.7433 90.4812 96.367C92.9645 97.7829 95.6877 98.7287 98.5141 99.157C98.9868 98.6842 99.4634 98.2037 99.9129 97.7194C96.8367 97.4602 93.8563 96.5219 91.1864 94.972C88.2684 93.2423 84.9524 92.2972 81.5609 92.2285" fill="#887369"/>
<path d="M81.6036 95.1659C78.2525 95.3297 74.9819 96.249 72.0362 97.8551C68.8641 99.5833 65.3347 100.553 61.7249 100.688C58.4411 100.544 55.2359 99.6379 52.3629 98.0411C49.1783 96.2991 45.6323 95.3214 42.005 95.1853C38.6538 95.3483 35.3808 96.2536 32.4221 97.8358C30.5042 98.7714 28.5023 99.5239 26.443 100.083C26.8886 100.51 27.3536 100.916 27.8186 101.339C29.6118 100.765 31.3646 100.073 33.0654 99.2656C35.822 97.7723 38.8778 96.9144 42.0089 96.7546C45.4059 96.8875 48.7242 97.8166 51.6964 99.4671C54.7759 101.16 58.2061 102.115 61.7171 102.257C65.5523 102.13 69.3053 101.113 72.6795 99.285C75.4191 97.771 78.4663 96.8979 81.592 96.7314C84.7368 96.8014 87.8088 97.6909 90.5045 99.3121C92.223 100.243 94.0299 101.001 95.8985 101.575L97.3245 100.304C95.1874 99.7877 93.1304 98.9833 91.2097 97.9133C88.2927 96.1811 84.9761 95.2358 81.5842 95.1698" fill="#887369"/>
<path d="M81.6075 98.1305C78.2538 98.2965 74.9819 99.2241 72.0401 100.843C68.866 102.565 65.3372 103.53 61.7287 103.664C58.446 103.52 55.2413 102.617 52.3667 101.025C49.1835 99.2809 45.6364 98.3055 42.0089 98.177C38.6576 98.3362 35.3839 99.2403 32.426 100.824C31.2906 101.335 30.132 101.854 28.9385 102.3C29.4035 102.687 29.8762 103.056 30.3567 103.428C31.2829 103.04 32.1819 102.653 33.0692 102.265C35.8269 100.774 38.8821 99.9165 42.0127 99.7541C45.4098 99.887 48.7281 100.816 51.7002 102.467C54.7801 104.158 58.2102 105.111 61.721 105.253C65.5559 105.127 69.3089 104.111 72.6833 102.284C75.421 100.766 78.4693 99.8923 81.5959 99.7309C84.7403 99.7995 87.8124 100.688 90.5083 102.308C91.4228 102.777 92.349 103.234 93.3565 103.66C93.8253 103.304 94.2981 102.928 94.767 102.552C93.5526 102.073 92.3651 101.528 91.2097 100.92C88.2917 99.1908 84.9757 98.2457 81.5842 98.177" fill="#887369"/>
<path d="M81.6035 101.087C78.2502 101.255 74.9789 102.183 72.0361 103.799C68.8611 105.519 65.3329 106.484 61.7248 106.62C58.442 106.477 55.2373 105.573 52.3628 103.981C49.1795 102.237 45.6324 101.262 42.0049 101.133C38.654 101.295 35.3809 102.199 32.422 103.78C32.0888 103.927 31.7555 104.082 31.4261 104.222C31.9183 104.582 32.4104 104.935 32.9064 105.26C32.9602 105.247 33.0123 105.228 33.0614 105.202C35.819 103.711 38.8742 102.853 42.0049 102.691C45.4014 102.827 48.719 103.756 51.6924 105.404C54.7719 107.096 58.2021 108.051 61.7131 108.194C65.548 108.064 69.3005 107.047 72.6755 105.221C75.4154 103.709 78.4626 102.837 81.588 102.672C84.7318 102.738 87.8038 103.624 90.5005 105.241L90.8454 105.411C91.3414 105.082 91.8219 104.745 92.3101 104.4L91.2057 103.85C88.2877 102.12 84.9717 101.175 81.5803 101.106" fill="#887369"/>
<path d="M72.0481 106.737C68.8738 108.457 65.3449 109.421 61.7367 109.554C58.4584 109.415 55.2574 108.515 52.3863 106.927C49.201 105.18 45.6513 104.202 42.0207 104.071C39.2614 104.146 36.5484 104.799 34.0576 105.989C34.6001 106.345 35.1465 106.675 35.7045 106.996C37.6991 106.133 39.8438 105.67 42.0169 105.632C45.4134 105.768 48.731 106.697 51.7044 108.345C54.7864 110.029 58.2156 110.98 61.7251 111.123C65.56 110.997 69.313 109.981 72.6875 108.155C75.4271 106.641 78.4743 105.768 81.6 105.601C83.8845 105.593 86.1424 106.092 88.2107 107.062C88.7532 106.741 89.288 106.423 89.8227 106.082C87.2847 104.753 84.4646 104.054 81.6 104.044C78.2479 104.212 74.9778 105.139 72.0365 106.756" fill="#887369"/>
<path d="M62 0C49.7376 0 37.7505 3.63624 27.5547 10.4489C17.3588 17.2615 9.41213 26.9446 4.7195 38.2736C0.0268634 49.6026 -1.20094 62.0688 1.19134 74.0956C3.58362 86.1224 9.48854 97.1697 18.1594 105.841C26.8302 114.511 37.8776 120.416 49.9044 122.809C61.9312 125.201 74.3974 123.973 85.7264 119.28C97.0554 114.588 106.738 106.641 113.551 96.4453C120.364 86.2495 124 74.2624 124 62C124 45.5566 117.468 29.7866 105.841 18.1594C94.2134 6.53212 78.4434 0 62 0ZM62 114.119C51.6936 114.119 41.6184 111.064 33.0484 105.339C24.4785 99.6136 17.7987 91.4757 13.8537 81.9542C9.90873 72.4327 8.87575 61.9552 10.8854 51.8466C12.895 41.738 17.8571 32.4524 25.144 25.1638C32.4309 17.8753 41.7155 12.9112 51.8236 10.8993C61.9318 8.88737 72.4095 9.91801 81.9319 13.8609C91.4543 17.8037 99.5937 24.4817 105.321 33.0504C111.048 41.6191 114.106 51.6936 114.107 62C114.109 68.8438 112.762 75.6208 110.144 81.9441C107.526 88.2674 103.688 94.013 98.8494 98.8528C94.0107 103.693 88.2659 107.532 81.9432 110.151C75.6206 112.771 68.8438 114.119 62 114.119Z" fill="#E71618"/>
<path d="M91.3413 46.6357C90.7066 48.5569 89.5041 50.2404 87.8926 51.4639C85.4746 53.4014 69.4398 63.2207 67.6186 65.4798C66.0582 67.8946 65.3189 70.7486 65.5106 73.6173V92.4691H68.01V87.5828C68.1887 85.1894 69.2231 82.9404 70.9239 81.2472C76.0094 77.0859 81.359 73.2584 86.9393 69.7888C88.5518 68.5102 89.8089 66.8388 90.5899 64.9348C91.3709 63.0309 91.6496 60.9582 91.3994 58.9155V46.035L91.3413 46.6357Z" fill="#009B3B"/>
<path d="M65.53 64.3251C67.3009 62.0931 83.8471 51.9987 86.2186 50.069C87.6514 49.0939 88.8541 47.818 89.7429 46.3302C90.6317 44.8424 91.1852 43.1786 91.3646 41.4548V20.34C91.0471 23.3778 89.7035 26.2167 87.5555 28.3883C85.1259 31.5736 73.993 37.5953 68.4944 41.4587C66.2664 42.6939 64.4069 44.4993 63.1063 46.6898C61.8058 48.8803 61.111 51.3772 61.0931 53.9246V92.4924H63.5615V72.3618C63.32 69.5452 64.0132 66.7275 65.5339 64.3444" fill="#009B3B"/>
<path d="M52.9677 42.493C47.2109 38.1958 41.6937 33.5867 36.4408 28.6864C34.3124 26.444 32.955 23.5811 32.5658 20.514V40.1254C32.6553 42.3816 33.2645 44.5866 34.346 46.5687C35.4274 48.5508 36.9519 50.2565 38.8007 51.5528C43.6909 55.1255 50.5845 60.318 52.6499 62.4028C55.4133 65.4474 56.8569 69.4634 56.6644 73.5705V92.4921H59.1057V54.7652C59.4009 52.3429 58.9762 49.8873 57.8847 47.7048C56.7931 45.5223 55.083 43.7097 52.9677 42.493Z" fill="#009B3B"/>
</g>
<defs>
<clipPath id="clip0_5_1676">
<rect width="124" height="124" fill="white"/>
</clipPath>
</defs>
</svg>
