<svg width="124" height="124" viewBox="0 0 124 124" fill="none" xmlns="http://www.w3.org/2000/svg">
  <path
    d="M68.5345 53.9912C68.5602 53.9535 68.586 53.9158 68.6118 53.8782C68.6713 53.7928 68.7309 53.7055 68.7904 53.6202C68.8221 53.5766 68.8539 53.5349 68.8856 53.4933C68.9431 53.4139 69.0007 53.3345 69.0602 53.2572C69.0939 53.2135 69.1277 53.1719 69.1614 53.1282C69.2209 53.0528 69.2824 52.9774 69.3439 52.902C69.3776 52.8604 69.4114 52.8207 69.4451 52.779C69.5106 52.7036 69.5741 52.6283 69.6415 52.5529C69.6732 52.5152 69.707 52.4795 69.7387 52.4418C69.8101 52.3644 69.8816 52.287 69.955 52.2096C69.9827 52.1779 70.0125 52.1461 70.0423 52.1144C70.1236 52.0311 70.205 51.9497 70.2863 51.8684C70.3101 51.8446 70.3339 51.8208 70.3577 51.799C70.4529 51.7037 70.5521 51.6105 70.6494 51.5192C70.6613 51.5113 70.6712 51.5014 70.6811 51.4914C71.3676 50.8625 72.1195 50.305 72.925 49.8249L72.927 49.8229C73.0599 49.7455 73.1948 49.6682 73.3317 49.5928L73.3376 49.5888C73.4745 49.5154 73.6114 49.442 73.7503 49.3726H68.1793V54.3682C68.2567 54.2412 68.4511 54.1162 68.5345 53.9912Z"
    fill="white" />
  <path
    d="M70.3049 71.293C69.4954 70.5232 68.7812 69.6542 68.188 68.7L68.19 81.2128H78.8657V75.1895C75.5168 74.9971 72.5111 73.5408 70.3049 71.293Z"
    fill="white" />
  <path
    d="M47.1371 58.9488C47.1371 55.5047 50.5297 53.9572 53.0156 53.9572C55.4956 53.9572 58.8842 55.5047 58.8842 58.9488H47.1371ZM65.1476 58.0719C65.1456 58.062 65.1436 58.0521 65.1416 58.0402C64.6516 55.8162 63.5148 53.7667 61.88 52.1815C60.0686 50.4218 57.7434 49.1897 55.1504 48.7294C55.1504 48.7294 55.1464 48.7235 55.1424 48.7294C54.3786 48.6163 53.5791 48.5608 52.7359 48.5608C52.22 48.5608 51.7161 48.5826 51.23 48.6302C44.8317 49.4218 39.8877 54.8777 39.8877 61.4863C39.8877 63.0418 40.1635 64.5337 40.6654 65.9185C40.6872 65.984 40.7091 66.0435 40.7388 66.103C41.4392 67.8271 42.5363 69.5472 44.0282 70.9836C44.0798 71.0352 44.1354 71.0828 44.187 71.1304C46.3773 73.1679 49.385 74.6043 53.2418 74.6043H53.3073C58.3644 74.523 61.5586 72.8029 61.5586 72.8029L60.8225 71.7454C60.8265 71.7395 60.8364 71.7355 60.8404 71.7316L60.8225 71.7097L57.6145 67.093C52.0514 69.0572 47.2224 66.5336 47.2224 63.7977H65.3976C65.3976 63.7977 65.8955 61.8633 65.1476 58.0719Z"
    fill="white" />
  <path d="M110.317 49.2613H104.47V42H95.7563V73.9538H104.47V57.9769H110.317V49.2613Z" fill="white" />
  <path
    d="M30.4272 57.9771L42.2754 73.954H31.3259L21.7136 59.4274V73.954H13V42.0002H21.7136V56.5229L32.4826 42.0002H43.7872L30.4272 57.9771Z"
    fill="white" />
  <path
    d="M79.7685 47.8093C74.876 47.8093 70.5887 50.3885 68.1841 54.2612V68.6152C70.5887 72.4859 74.876 75.0651 79.7685 75.0651C87.2956 75.0651 93.3964 68.9644 93.3964 61.4372C93.3964 53.91 87.2956 47.8093 79.7685 47.8093Z"
    fill="#FFCD00" />
  <path
    d="M89.5741 51.9751C91.9409 54.4273 93.3992 57.7604 93.3992 61.4366C93.3992 68.9638 87.2985 75.0645 79.7713 75.0645C76.1367 75.0645 72.8353 73.638 70.3931 71.3188C72.8651 73.8384 76.3033 75.4058 80.1125 75.4058C87.6377 75.4058 93.7404 69.3051 93.7404 61.7779C93.7404 57.929 92.1413 54.4531 89.5741 51.9751Z"
    fill="#C3992D" />
</svg>