<svg width="124" height="124" viewBox="0 0 124 124" fill="none" xmlns="http://www.w3.org/2000/svg">
<path fill-rule="evenodd" clip-rule="evenodd" d="M48.6627 28.1368C48.3775 28.7483 48.3078 29.4716 48.2938 30.2614L48.2906 30.6617V31.7697H66.754C74.8496 31.7697 84.1119 30.9765 92.0948 27.0663C92.3856 26.9238 92.7252 27.2048 92.6717 27.5014L92.6387 27.6002L88.8151 37.1588C86.8142 41.6357 82.118 43.3705 66.0742 43.4252L65.2759 43.4266H48.2906V59.5428L80.0834 50.7062C80.7514 50.5259 84.0738 49.8324 86.2135 52.2015C86.4956 52.5139 86.7759 52.8231 87.0533 53.1292C89.14 55.4315 91.0672 57.5578 92.4384 59.5622C92.8671 60.0966 92.6924 60.5702 92.011 60.3765C91.3597 60.191 89.7459 60.1945 88.3743 60.5727C87.758 60.7428 87.1587 60.9075 87.045 60.9388L87.0257 60.9441L87.027 83.2737L97.0767 83.2655C101.779 83.2655 102.454 82.7446 103.098 82.2468C103.168 82.1934 103.236 82.1402 103.31 82.088C103.538 81.9258 103.915 81.912 103.983 82.2424C104.052 82.5732 103.932 82.8583 103.163 84.3899C102.397 85.918 99.7772 90.5895 98.1675 92.6201C97.1645 93.8931 94.3097 96.7909 89.072 96.9893L88.5017 97H35.4976C29.8963 97 26.8715 93.9386 25.8322 92.6201C24.223 90.5895 21.6034 85.918 20.8369 84.3899C20.0683 82.8583 19.9476 82.5732 20.0168 82.2424C20.0855 81.912 20.4618 81.9258 20.6898 82.088C20.7632 82.1402 20.832 82.1934 20.9012 82.2468C21.5229 82.7267 22.1725 83.2283 26.4344 83.2635L26.923 83.2655L36.9749 83.2737L36.9724 38.034C36.9724 36.4368 37.4224 34.7064 39.4348 33.0627C41.9283 31.0261 45.7896 28.4935 48.2906 27.0844C48.6774 26.8666 49.2406 27.021 48.6627 28.1368ZM48.2906 71.6271L75.7095 64.0655V83.2737H48.2906V71.6271Z" fill="white"/>
</svg>
