<svg width="124" height="124" viewBox="0 0 124 124" fill="none" xmlns="http://www.w3.org/2000/svg">
  <path
    d="M89.6506 98.6871C89.6506 101.266 90.7744 103.403 93.335 103.403C94.321 103.417 95.2785 103.072 96.0279 102.431C96.7773 101.79 97.2674 100.898 97.4062 99.9214C97.0388 100.435 96.5663 100.866 96.02 101.183C95.4738 101.501 94.8662 101.699 94.2377 101.764C92.985 101.764 92.1929 100.971 92.1929 99.4977C92.1929 90.2867 101.035 80.1731 102.509 72.8596H98.2905C98.2905 77.3546 89.6506 87.155 89.6506 98.6871Z"
    fill="white" />
  <path style="mix-blend-mode:multiply"
    d="M89.6506 98.6871C89.6506 101.266 90.7744 103.403 93.335 103.403C94.321 103.417 95.2785 103.072 96.0279 102.431C96.7773 101.79 97.2674 100.898 97.4062 99.9214C97.0388 100.435 96.5663 100.866 96.02 101.183C95.4738 101.501 94.8662 101.699 94.2377 101.764C92.985 101.764 92.1929 100.971 92.1929 99.4977C92.1929 90.2867 101.035 80.1731 102.509 72.8596H98.2905C98.2905 77.3546 89.6506 87.155 89.6506 98.6871Z"
    fill="url(#paint0_linear_58_359)" />
  <path style="mix-blend-mode:multiply"
    d="M98.2905 72.8228C98.2905 77.3545 89.6506 87.155 89.6506 98.6134C89.6506 101.192 90.7744 103.329 93.335 103.329C93.9735 103.338 94.605 103.196 95.178 102.914C95.7511 102.632 96.2495 102.219 96.6325 101.708C96.2929 102.097 95.8639 102.397 95.3826 102.583C94.9013 102.769 94.3819 102.836 93.8692 102.777C91.4007 102.777 90.7559 100.713 90.7559 98.9818C90.8747 96.0962 91.453 93.248 92.4692 90.5446C94.035 85.8839 100.28 76.6914 100.28 72.8228H98.2905Z"
    fill="url(#paint1_radial_58_359)" />
  <path
    d="M61.631 83.5076C61.4772 84.7649 61.6749 86.0402 62.2021 87.192C62.7542 88.2862 63.5956 89.2081 64.6349 89.8577C65.6742 90.5073 66.8716 90.8596 68.0971 90.8763C70.794 90.469 73.3779 89.5095 75.6869 88.0578L73.5316 78.4968C73.5316 83.7839 70.5841 85.8656 67.526 86.0314C66.4213 86.0483 65.3254 85.8323 64.3097 85.3975C63.294 84.9626 62.3813 84.3187 61.631 83.5076Z"
    fill="white" />
  <path style="mix-blend-mode:multiply"
    d="M61.631 83.5076C61.4772 84.7649 61.6749 86.0402 62.2021 87.192C62.7542 88.2862 63.5956 89.2081 64.6349 89.8577C65.6742 90.5073 66.8716 90.8596 68.0971 90.8763C70.794 90.469 73.3779 89.5095 75.6869 88.0578L73.5316 78.4968C73.5316 83.7839 70.5841 85.8656 67.526 86.0314C66.4213 86.0483 65.3254 85.8323 64.3097 85.3975C63.294 84.9626 62.3813 84.3187 61.631 83.5076Z"
    fill="url(#paint2_linear_58_359)" />
  <path style="mix-blend-mode:multiply"
    d="M68.0971 90.9315C66.8716 90.9147 65.6742 90.5624 64.6349 89.9129C63.5956 89.2633 62.7542 88.3413 62.2021 87.2471C61.6749 86.0954 61.4772 84.82 61.631 83.5627C61.631 83.5627 62.11 88.113 68.0971 88.9604V90.9315Z"
    fill="url(#paint3_linear_58_359)" />
  <path
    d="M52.5676 104.085C68.3183 104.085 77.6213 91.1892 78.1924 79.2334H75.0054C74.8319 85.2112 72.3174 90.8817 68.0034 95.0234C63.6894 99.1652 57.9212 101.447 51.9412 101.377C46.2673 101.377 40.0223 98.5764 40.0223 92.4972C39.9409 90.7956 40.4668 89.1206 41.5061 87.7709C42.5454 86.4211 44.0304 85.4846 45.6962 85.1284C44.6313 85.0819 43.5684 85.2564 42.5743 85.641C41.5802 86.0256 40.6765 86.612 39.9202 87.3631C39.1639 88.1142 38.5714 89.0138 38.18 90.0052C37.7885 90.9966 37.6067 92.0583 37.6458 93.1235C37.5906 100.474 44.8488 104.085 52.5676 104.085Z"
    fill="white" />
  <path style="mix-blend-mode:multiply"
    d="M51.9412 101.377C54.6397 101.393 57.3225 100.964 59.881 100.106L61.1521 102.648C58.4723 103.571 55.6597 104.05 52.8254 104.066C51.4261 103.327 50.1767 102.334 49.141 101.137C50.0666 101.291 51.0029 101.371 51.9412 101.377ZM44.5724 99.5345C43.2434 98.8837 42.1221 97.8752 41.3346 96.6223C40.5471 95.3694 40.1245 93.9218 40.1143 92.442C40.033 90.7405 40.5589 89.0654 41.5981 87.7157C42.6374 86.366 44.1224 85.4295 45.7882 85.0733C44.7234 85.0268 43.6604 85.2013 42.6663 85.5859C41.6722 85.9705 40.7686 86.5568 40.0123 87.3079C39.256 88.059 38.6634 88.9586 38.272 89.95C37.8806 90.9415 37.6987 92.0032 37.7379 93.0684C37.7379 98.5949 41.6802 101.929 46.8383 103.329C45.802 102.249 44.9827 100.979 44.425 99.5897L44.5724 99.5345Z"
    fill="url(#paint4_radial_58_359)" />
  <path style="mix-blend-mode:multiply"
    d="M69.1104 94.8555H68.2077C65.0521 98.0483 60.9847 100.185 56.5651 100.972L57.5967 103.643C63.4463 102.533 68.6881 99.3228 72.3342 94.616C71.2673 94.7779 70.1895 94.8579 69.1104 94.8555Z"
    fill="url(#paint5_linear_58_359)" />
  <path style="mix-blend-mode:multiply"
    d="M45.6408 85.0734C44.5759 85.0269 43.5129 85.2014 42.5189 85.586C41.5248 85.9706 40.6211 86.557 39.8648 87.3081C39.1085 88.0592 38.516 88.9588 38.1246 89.9502C37.7331 90.9416 37.5512 92.0033 37.5904 93.0685C37.5904 100.437 44.8486 104.122 52.5674 104.122C68.3181 104.122 77.6212 91.2263 78.1923 79.2705H76.3501C76.3204 82.4146 75.6602 85.5209 74.4086 88.4053C73.157 91.2897 71.3394 93.8938 69.0634 96.0632C66.7875 98.2327 64.0994 99.9234 61.1584 101.035C58.2173 102.148 55.083 102.658 51.9411 102.537C42.7301 102.537 38.8615 97.6924 38.8615 92.4606C38.8509 90.6011 39.5438 88.8063 40.8011 87.4362C42.0584 86.0662 43.7872 85.2221 45.6408 85.0734Z"
    fill="url(#paint6_radial_58_359)" />
  <path
    d="M61.8521 109.022C77.5107 109.022 87.6428 96.882 83.0557 78.5522L79.3714 78.9944C83.9031 95.4267 74.8212 106.111 61.7785 106.111C53.7281 106.111 46.5988 101.948 46.5988 94.524C46.5246 92.3473 47.2241 90.2147 48.5731 88.5049C49.9221 86.795 51.8334 85.6185 53.9676 85.1841C52.5989 85.179 51.243 85.4473 49.9794 85.9731C48.7158 86.499 47.57 87.2719 46.6091 88.2466C45.6482 89.2212 44.8916 90.3779 44.3837 91.6488C43.8758 92.9198 43.6268 94.2793 43.6513 95.6478C43.725 103.293 51.0938 109.022 61.8521 109.022Z"
    fill="white" />
  <path style="mix-blend-mode:multiply"
    d="M80.274 91.2265C79.8859 93.8023 78.9204 96.2571 77.4498 98.4073C75.9791 100.557 74.0414 102.347 71.7815 103.643L72.8315 106.646C79.8503 103.201 84.2163 96.2188 84.161 86.842C83.1385 88.5246 81.8219 90.0097 80.274 91.2265Z"
    fill="url(#paint7_linear_58_359)" />
  <path style="mix-blend-mode:multiply"
    d="M54.0413 85.1841C52.6726 85.179 51.3168 85.4473 50.0532 85.9731C48.7896 86.499 47.6437 87.2719 46.6828 88.2466C45.7219 89.2212 44.9653 90.3779 44.4574 91.6488C43.9495 92.9198 43.7005 94.2793 43.725 95.6478C43.725 103.293 51.0938 109.022 61.8522 109.022C77.5108 109.022 87.6428 96.882 83.0558 78.5522L81.4899 78.847C82.1477 81.8714 82.4384 84.964 82.3557 88.0579C82.3557 96.6978 76.3871 107.327 62.0917 107.327C52.3281 107.327 45.512 102.63 45.512 95.1504C45.3947 92.7148 46.2124 90.3264 47.7979 88.4738C49.3834 86.6212 51.6168 85.4444 54.0413 85.1841Z"
    fill="url(#paint8_radial_58_359)" />
  <path
    d="M34.1825 98.6871C34.1825 101.266 33.0587 103.403 30.4981 103.403C29.5121 103.417 28.5546 103.072 27.8052 102.431C27.0557 101.79 26.5657 100.898 26.4268 99.9214C26.7943 100.435 27.2668 100.866 27.8131 101.183C28.3593 101.501 28.9669 101.699 29.5954 101.764C30.8481 101.764 31.6402 100.971 31.6402 99.4977C31.6402 90.2867 22.7977 80.1731 21.324 72.8596H25.5979C25.5426 77.3546 34.1825 87.155 34.1825 98.6871Z"
    fill="white" />
  <path style="mix-blend-mode:multiply"
    d="M34.1825 98.6871C34.1825 101.266 33.0587 103.403 30.4981 103.403C29.5121 103.417 28.5546 103.072 27.8052 102.431C27.0557 101.79 26.5657 100.898 26.4268 99.9214C26.7943 100.435 27.2668 100.866 27.8131 101.183C28.3593 101.501 28.9669 101.699 29.5954 101.764C30.8481 101.764 31.6402 100.971 31.6402 99.4977C31.6402 90.2867 22.7977 80.1731 21.324 72.8596H25.5979C25.5426 77.3546 34.1825 87.155 34.1825 98.6871Z"
    fill="url(#paint9_linear_58_359)" />
  <path style="mix-blend-mode:multiply"
    d="M25.5426 72.8227C25.5426 77.3545 34.1824 87.1549 34.1824 98.6134C34.1824 101.192 33.0587 103.329 30.498 103.329C29.8596 103.338 29.228 103.196 28.655 102.914C28.082 102.632 27.5836 102.219 27.2005 101.708C27.5402 102.097 27.9691 102.397 28.4505 102.583C28.9318 102.769 29.4511 102.836 29.9638 102.777C32.4323 102.777 33.0771 100.713 33.0771 98.9818C32.9721 96.0723 32.3998 93.1987 31.3823 90.4709C29.8164 85.8101 23.5714 76.6176 23.5714 72.749L25.5426 72.8227Z"
    fill="url(#paint10_radial_58_359)" />
  <path
    d="M21.2687 72.8226C21.2687 72.8226 22.724 78.3491 27.2374 78.3491C31.3639 78.3491 32.4876 71.7909 32.4876 64.7354C44.9592 64.7354 54.4834 54.1612 54.9439 44.8397L50.3016 30.4338C48.8278 33.1418 48.3489 34.5603 45.7514 34.5603C43.9092 34.5603 43.2644 33.1418 43.2644 30.8759C43.2644 27.9469 42.4723 26.6021 39.1748 26.6021C31.1981 26.6021 20.7529 37.2131 20.7529 41.5054C20.7668 41.8017 20.8469 42.0911 20.9871 42.3524C21.1274 42.6138 21.3243 42.8405 21.5634 43.016C18.5054 45.724 16.0369 51.0663 16.0369 58.6746C16.0369 66.2828 18.008 73.1726 20.2739 73.1726C20.6384 73.19 20.9954 73.0644 21.2687 72.8226Z"
    fill="white" />
  <path style="mix-blend-mode:multiply"
    d="M21.2687 72.8229C22.2082 71.9202 24.032 68.8806 24.5478 62.7461C26.9591 64.13 29.709 64.8127 32.4876 64.7172C32.4876 71.4228 31.3639 78.331 27.2374 78.331C22.724 78.331 21.2687 72.8044 21.2687 72.8044V72.8229Z"
    fill="url(#paint11_linear_58_359)" />
  <path style="mix-blend-mode:multiply"
    d="M50.3016 30.4155C48.8279 33.1235 48.3489 34.542 45.7514 34.542C45.3511 34.5796 44.9484 34.5005 44.592 34.3142C44.2357 34.1278 43.941 33.8422 43.7434 33.492C43.5295 33.0779 43.3922 32.6285 43.3382 32.1656C43.3085 31.7363 43.3085 31.3054 43.3382 30.8761V33.6394C43.3382 35.0947 43.6145 37.6369 45.9356 37.6369C48.2568 37.6369 51.0938 34.4868 50.3016 30.4155Z"
    fill="url(#paint12_radial_58_359)" />
  <path style="mix-blend-mode:multiply"
    d="M24.5478 62.7461C24.8348 58.6232 24.7052 54.4819 24.1609 50.385C28.969 50.385 32.4876 55.5984 32.4876 64.7172C32.4876 71.4228 31.3639 78.331 27.2374 78.331C22.724 78.331 21.2687 72.8045 21.2687 72.8045C22.2082 71.9202 24.032 68.8806 24.5478 62.7461Z"
    fill="url(#paint13_radial_58_359)" />
  <path style="mix-blend-mode:multiply"
    d="M44.296 40.5845C43.0214 45.5605 40.4831 50.123 36.9273 53.8299C29.0427 62.0092 16 66.0252 16 58.6748C16 51.3245 18.5054 45.7795 21.5266 43.0162C25.4136 46.3321 35.3983 44.2136 42.1775 38.3555"
    fill="url(#paint14_radial_58_359)" />
  <path style="mix-blend-mode:multiply"
    d="M42.3618 33.639V30.8021C42.4734 29.8765 42.2654 28.9405 41.7723 28.1493C41.5423 27.9031 41.2492 27.7247 40.9248 27.6335C40.3269 27.4599 39.7047 27.3852 39.0827 27.4124C37.035 27.4972 35.0354 28.0586 33.2429 29.052C31.1496 30.1301 29.2 31.467 27.44 33.0311C25.8105 34.4473 24.3514 36.0485 23.0925 37.8024C22.2314 38.8609 21.677 40.1352 21.4897 41.4868C21.4897 41.671 21.4897 41.9289 21.9871 42.3158C23.3581 43.3083 25.0328 43.7905 26.7216 43.679C27.9051 43.6633 29.084 43.5276 30.2401 43.2737C31.5469 42.9921 32.8285 42.6039 34.0719 42.1131C36.7582 41.0456 39.2484 39.5391 41.4407 37.655C42.0191 37.1259 42.3692 36.3927 42.417 35.6102C42.3261 34.9572 42.3075 34.2961 42.3618 33.639Z"
    fill="url(#paint15_linear_58_359)" />
  <path style="mix-blend-mode:multiply"
    d="M20.2739 72.362C20.2739 72.362 20.4397 72.362 20.6424 72.1778C21.3321 71.3868 21.8693 70.4749 22.2267 69.4882C23.0129 67.3118 23.4903 65.0361 23.6451 62.7273C23.7615 60.887 23.7615 59.0411 23.6451 57.2008C23.5346 55.2112 23.3135 53.1295 23.0188 51.1768C22.7582 48.9032 22.2008 46.6736 21.3608 44.5449C20.0821 45.9844 19.0881 47.6535 18.4317 49.4636C17.3315 52.4523 16.7943 55.6191 16.8475 58.8035C16.8333 62.1135 17.2671 65.4102 18.137 68.6039C19.0581 71.6435 20.016 72.362 20.2739 72.362Z"
    fill="url(#paint16_linear_58_359)" />
  <path style="mix-blend-mode:multiply"
    d="M29.1348 76.5441C28.9071 76.8126 28.6254 77.0302 28.308 77.1825C27.9906 77.3349 27.6446 77.4186 27.2926 77.4283C26.4973 77.4085 25.7205 77.1846 25.0366 76.7781C24.3527 76.3717 23.7847 75.7963 23.3872 75.1072C22.961 74.4609 22.6088 73.7688 22.3372 73.0439C23.0189 72.1394 23.5651 71.1402 23.9583 70.078C24.6669 68.1721 25.1372 66.1859 25.3583 64.1646C26.1476 64.5305 26.9674 64.8264 27.8085 65.0488C29.0618 65.372 30.3467 65.5573 31.6402 65.6015C31.666 68.3619 31.319 71.1132 30.6086 73.7808C30.3158 74.7947 29.8137 75.736 29.1348 76.5441Z"
    fill="url(#paint17_linear_58_359)" />
  <path style="mix-blend-mode:multiply"
    d="M50.3016 30.4153C48.8279 33.1233 48.3489 34.5418 45.7514 34.5418C43.9092 34.5418 43.2645 33.1233 43.2645 30.8574C43.2645 27.9283 42.4723 26.5835 39.1748 26.5835C31.1981 26.5835 20.7529 37.1945 20.7529 41.4868C20.7642 41.7837 20.8431 42.074 20.9836 42.3358C21.124 42.5976 21.3224 42.8239 21.5635 42.9974L24.2347 50.3662C24.7789 54.463 24.9085 58.6044 24.6215 62.7273C27.0328 64.1111 29.7828 64.7939 32.5614 64.6984C45.033 64.6984 54.5571 54.1242 55.0176 44.8027L50.3016 30.4153Z"
    fill="url(#paint18_linear_58_359)" />
  <path
    d="M58.4994 19.4547C57.257 20.9102 55.5162 21.8496 53.6176 22.089C51.407 22.089 49.0305 21.2047 48.57 19.3994H48.9753C49.1344 19.4004 49.2918 19.3677 49.4373 19.3033C49.5828 19.239 49.713 19.1445 49.8192 19.0261C49.9254 18.9076 50.0053 18.768 50.0535 18.6164C50.1018 18.4648 50.1173 18.3047 50.099 18.1467C50.099 17.3914 49.5279 16.9861 48.699 16.9861C48.4793 16.9846 48.2618 17.0298 48.0609 17.1188C47.8601 17.2078 47.6805 17.3386 47.5341 17.5024C47.3877 17.6662 47.2779 17.8593 47.2119 18.0689C47.1459 18.2785 47.1254 18.4997 47.1515 18.7178C47.3144 20.2192 48.0599 21.5968 49.2276 22.5544C50.3954 23.5121 51.8923 23.9733 53.3965 23.8391C55.4767 23.8582 57.52 23.2899 59.2915 22.1995L58.4994 19.4547Z"
    fill="white" />
  <path style="mix-blend-mode:multiply"
    d="M56.1782 21.2968C55.417 21.7982 54.5289 22.073 53.6175 22.089C51.4069 22.089 49.0305 21.2047 48.5699 19.3994C48.3343 19.3444 48.114 19.2374 47.9252 19.0862C47.9252 19.0862 48.312 22.9364 53.8939 22.9548C53.8939 22.9548 56.8598 22.9548 57.8914 22.9548L58.2046 22.8258C58.2046 22.4758 57.8914 21.4442 57.8914 21.4442L56.1782 21.2968Z"
    fill="url(#paint19_linear_58_359)" />
  <path
    d="M59.7888 18.3676C58.5983 19.1607 57.2191 19.6247 55.7913 19.7124C55.0415 19.786 54.2849 19.6851 53.5807 19.4176C53.8719 19.377 54.138 19.2306 54.3283 19.0064C54.5185 18.7821 54.6196 18.4957 54.6123 18.2018C54.5886 17.8726 54.4361 17.5661 54.1877 17.3488C53.9394 17.1315 53.6153 17.0209 53.2859 17.0412C53.1005 17.0363 52.916 17.0683 52.7431 17.1353C52.5701 17.2023 52.4122 17.303 52.2785 17.4315C52.1449 17.5601 52.0381 17.7139 51.9643 17.8841C51.8906 18.0543 51.8514 18.2374 51.849 18.4228C51.849 20.265 53.8938 21.2045 56.0308 21.2045C60.3415 21.2045 62.3863 19.3623 62.3863 17.9439C62.0363 17.907 61.8521 17.3912 59.7888 18.3676Z"
    fill="white" />
  <path style="mix-blend-mode:multiply"
    d="M57.3203 20.2834C60.6547 19.6755 61.5574 19.4544 61.5574 19.4544L60.2862 18.1465L59.7889 18.3675C58.5983 19.1607 57.2191 19.6247 55.7913 19.7123C55.0416 19.786 54.2849 19.6851 53.5807 19.4176C53.4302 19.4445 53.2757 19.4404 53.1269 19.4056C52.978 19.3707 52.8378 19.3059 52.7148 19.215C53.3109 19.7979 54.0557 20.2059 54.8679 20.3943C55.6801 20.5827 56.5284 20.5444 57.3203 20.2834Z"
    fill="url(#paint20_linear_58_359)" />
  <path
    d="M39.6168 72.7676C40.8603 73.4122 42.252 73.7172 43.6512 73.6518C45.1676 73.6073 46.6643 73.2954 48.0724 72.7307C48.1572 72.9151 48.1951 73.1176 48.1829 73.3202C48.1662 73.562 48.0835 73.7946 47.9438 73.9927C47.8042 74.1909 47.6129 74.3469 47.3908 74.444C47.6826 74.5348 47.9884 74.5722 48.2935 74.5545C48.782 74.5545 49.2506 74.3604 49.5961 74.0149C49.9416 73.6695 50.1357 73.2009 50.1357 72.7123C50.1465 72.3974 50.0416 72.0894 49.8409 71.8465C53.5253 70.0043 56.4728 66.9463 56.4728 64.1646H51.7015C51.4898 65.5874 50.9232 66.934 50.0539 68.0802C49.1846 69.2264 48.0407 70.1352 46.7276 70.7227C45.1686 69.6074 43.2822 69.0434 41.3668 69.12C38.8799 69.12 36.5035 70.0043 36.5035 72.3807C36.4741 72.7262 36.5191 73.0739 36.6352 73.4006C36.7513 73.7273 36.9359 74.0254 37.1767 74.2749C37.4174 74.5244 37.7088 74.7195 38.0311 74.8471C38.3535 74.9748 38.6994 75.032 39.0457 75.015C39.7273 75.015 39.9115 74.794 39.9115 74.794C39.711 74.6826 39.5439 74.5197 39.4273 74.3222C39.3107 74.1247 39.2489 73.8996 39.2483 73.6702C39.238 73.5018 39.2658 73.3331 39.3295 73.1769C39.3933 73.0206 39.4915 72.8807 39.6168 72.7676Z"
    fill="white" />
  <path style="mix-blend-mode:multiply"
    d="M48.0725 72.7304C48.1572 72.9149 48.1952 73.1173 48.183 73.3199C48.1663 73.5618 48.0836 73.7943 47.9439 73.9925C47.8043 74.1906 47.613 74.3466 47.3909 74.4437C47.6827 74.5345 47.9885 74.5719 48.2935 74.5542C48.7821 74.5542 49.2507 74.3601 49.5962 74.0146C49.9416 73.6692 50.1357 73.2006 50.1357 72.712C50.1466 72.3971 50.0417 72.0891 49.841 71.8462C49.2712 72.1789 48.6805 72.4742 48.0725 72.7304Z"
    fill="url(#paint21_linear_58_359)" />
  <path style="mix-blend-mode:multiply"
    d="M43.6513 73.6518C48.9752 73.6518 56.5466 68.5858 56.5466 64.2014H51.7016C50.3384 70.5017 45.6777 71.8465 40.0222 71.8465L39.1011 72.307C40.3828 73.3347 42.0169 73.8176 43.6513 73.6518Z"
    fill="url(#paint22_linear_58_359)" />
  <g style="mix-blend-mode:multiply">
    <path
      d="M48.0725 72.7305C48.1572 72.9149 48.1952 73.1174 48.183 73.32C48.1663 73.5618 48.0836 73.7944 47.9439 73.9925C47.8043 74.1906 47.613 74.3467 47.3909 74.4437C47.6114 74.4698 47.835 74.4488 48.0468 74.3819C48.2586 74.315 48.4537 74.2038 48.6192 74.0557C48.7848 73.9076 48.9169 73.726 49.0068 73.5229C49.0968 73.3198 49.1425 73.0999 49.141 72.8779C49.1291 72.6895 49.0919 72.5036 49.0304 72.3252L48.0725 72.7305Z"
      fill="#808184" />
  </g>
  <g style="mix-blend-mode:multiply">
    <path
      d="M38.8799 71.8833C38.6134 71.9814 38.382 72.1562 38.2148 72.3857C38.0476 72.6152 37.9521 72.8891 37.9404 73.1728C38.0004 73.6385 38.2359 74.0637 38.5988 74.3616C38.9617 74.6595 39.4247 74.8076 39.8931 74.7755C39.6927 74.6641 39.5255 74.5013 39.4089 74.3037C39.2924 74.1062 39.2306 73.8812 39.23 73.6518C39.2241 73.4804 39.2576 73.3099 39.3279 73.1535C39.3981 72.997 39.5033 72.8587 39.6352 72.7491C39.3288 72.5132 39.0721 72.2189 38.8799 71.8833Z"
      fill="#808184" />
  </g>
  <path style="mix-blend-mode:multiply"
    d="M56.5649 64.2014H54.9438H54.7411C53.9526 66.6596 52.3998 68.8019 50.309 70.3162C48.2181 71.8305 45.6985 72.6377 43.1169 72.6202C41.6596 72.7748 40.1886 72.5061 38.8799 71.8465C39.072 72.1821 39.3287 72.4764 39.6352 72.7123C40.8787 73.357 42.2704 73.662 43.6696 73.5966C45.186 73.552 46.6827 73.2402 48.0908 72.6755C48.1756 72.8599 48.2135 73.0624 48.2014 73.265C48.1846 73.5068 48.1019 73.7394 47.9623 73.9375C47.8226 74.1356 47.6313 74.2917 47.4092 74.3887C47.701 74.4795 48.0068 74.517 48.3119 74.4993C48.8005 74.4993 49.269 74.3052 49.6145 73.9597C49.96 73.6142 50.1541 73.1456 50.1541 72.6571C50.1649 72.3421 50.0601 72.0341 49.8593 71.7912C53.5253 70.0227 56.5649 66.9831 56.5649 64.2014Z"
    fill="url(#paint23_linear_58_359)" />
  <path
    d="M64.7075 69.2859H60.5073C59.6968 73.4861 57.9528 76.3353 55.2755 77.8336C53.72 76.7577 51.8605 76.2089 49.97 76.2678C47.4646 76.2678 45.0882 77.1705 45.0882 79.5285C45.0673 79.8679 45.1179 80.2079 45.2366 80.5266C45.3553 80.8452 45.5395 81.1355 45.7773 81.3785C46.0152 81.6215 46.3013 81.812 46.6174 81.9376C46.9334 82.0632 47.2722 82.121 47.612 82.1075C48.2936 82.1075 48.4963 81.8865 48.4963 81.8865C48.2923 81.7775 48.1215 81.6156 48.0015 81.4179C47.8816 81.2202 47.8171 80.9939 47.8146 80.7627C47.811 80.5898 47.8474 80.4184 47.9209 80.2618C47.9944 80.1053 48.103 79.9678 48.2384 79.8601C49.4604 80.5887 50.87 80.9411 52.2912 80.8733C53.8086 80.8704 55.3106 80.57 56.7124 79.989C56.7352 80.1355 56.7352 80.2846 56.7124 80.4311C56.6998 80.6741 56.6188 80.9085 56.4786 81.1074C56.3384 81.3062 56.1449 81.4614 55.9203 81.5549C56.2121 81.6457 56.5179 81.6831 56.823 81.6654C57.3115 81.6654 57.7801 81.4713 58.1256 81.1258C58.4711 80.7804 58.6651 80.3118 58.6651 79.8232C58.6846 79.5214 58.5854 79.224 58.3888 78.9942C60.1262 77.9809 61.6024 76.5752 62.6996 74.8895C63.7967 73.2038 64.4844 71.2848 64.7075 69.2859Z"
    fill="white" />
  <path style="mix-blend-mode:multiply"
    d="M56.7123 79.9889C56.7351 80.1354 56.7351 80.2846 56.7123 80.431C56.6997 80.674 56.6187 80.9084 56.4785 81.1073C56.3383 81.3061 56.1448 81.4613 55.9202 81.5548C56.212 81.6456 56.5178 81.683 56.8228 81.6653C57.3114 81.6653 57.78 81.4712 58.1255 81.1258C58.4709 80.7803 58.665 80.3117 58.665 79.8231C58.6844 79.5214 58.5853 79.2239 58.3887 78.9941C57.8573 79.3698 57.2967 79.7025 56.7123 79.9889Z"
    fill="url(#paint24_linear_58_359)" />
  <path style="mix-blend-mode:multiply"
    d="M52.2911 80.8733C55.4046 80.7466 58.3695 79.5077 60.6477 77.3817C62.9258 75.2556 64.3662 72.3833 64.7074 69.2859H60.5072C59.273 75.6967 55.8096 79.0126 50.2462 79.0126L47.7593 79.4179C48.3779 79.9529 49.0981 80.3575 49.8768 80.6075C50.6555 80.8576 51.4766 80.948 52.2911 80.8733Z"
    fill="url(#paint25_linear_58_359)" />
  <g style="mix-blend-mode:multiply">
    <path
      d="M56.7123 79.9888C56.7351 80.1353 56.7351 80.2844 56.7123 80.4309C56.6997 80.6738 56.6187 80.9083 56.4785 81.1071C56.3383 81.306 56.1448 81.4611 55.9202 81.5546C56.1477 81.5954 56.3814 81.5854 56.6045 81.5252C56.8277 81.465 57.0347 81.3561 57.2108 81.2065C57.3869 81.0568 57.5277 80.87 57.6231 80.6594C57.7184 80.4489 57.766 80.2199 57.7624 79.9888C57.7786 79.8418 57.7786 79.6936 57.7624 79.5466L56.7123 79.9888Z"
      fill="#808184" />
  </g>
  <g style="mix-blend-mode:multiply">
    <path
      d="M47.483 79.0127C47.2193 79.1095 46.9897 79.2815 46.8227 79.5075C46.6558 79.7334 46.5587 80.0033 46.5435 80.2838C46.6034 80.7495 46.8389 81.1747 47.2018 81.4726C47.5648 81.7705 48.0277 81.9185 48.4962 81.8865C48.2923 81.7775 48.1214 81.6157 48.0015 81.418C47.8815 81.2203 47.817 80.994 47.8146 80.7628C47.811 80.5899 47.8473 80.4184 47.9208 80.2619C47.9943 80.1053 48.1029 79.9678 48.2383 79.8601C47.9352 79.6279 47.6789 79.3403 47.483 79.0127Z"
      fill="#808184" />
  </g>
  <path style="mix-blend-mode:multiply"
    d="M64.7075 69.2859H62.9942C62.788 72.1594 61.5155 74.8521 59.4262 76.8357C57.337 78.8192 54.5819 79.9505 51.7016 80.0074C50.2037 80.1109 48.709 79.7645 47.4093 79.0126C47.6053 79.3403 47.8616 79.6278 48.1646 79.8601C49.3866 80.5887 50.7963 80.9411 52.2174 80.8733C53.7348 80.8704 55.2369 80.57 56.6387 79.989C56.6615 80.1355 56.6615 80.2846 56.6387 80.4311C56.6261 80.6741 56.545 80.9085 56.4049 81.1074C56.2647 81.3062 56.0711 81.4614 55.8465 81.5549C56.1383 81.6457 56.4441 81.6831 56.7492 81.6654C57.2378 81.6654 57.7063 81.4713 58.0518 81.1258C58.3973 80.7804 58.5914 80.3118 58.5914 79.8232C58.6108 79.5214 58.5117 79.224 58.3151 78.9942C60.0662 77.9894 61.5569 76.5874 62.6672 74.9012C63.7775 73.2149 64.4763 71.2916 64.7075 69.2859Z"
    fill="url(#paint26_linear_58_359)" />
  <path
    d="M96.5957 78.331C101.109 78.331 102.564 72.8045 102.564 72.8045C102.826 73.0441 103.168 73.1758 103.522 73.1729C105.788 73.1729 107.87 65.9515 107.87 58.6012C107.87 51.2508 105.365 45.7059 102.343 42.9426C102.526 42.7777 102.671 42.5757 102.77 42.3502C102.868 42.1246 102.918 41.8807 102.914 41.6346C102.914 37.6002 88.7849 27.3208 80.6792 27.3208C73.9368 27.3208 76.9949 38.3739 69.8472 38.3739C66.4391 38.3739 64.3206 36.5317 64.3206 32.4237L58.2966 40.953C58.7388 50.2929 75.6316 64.5699 91.2902 64.5699C91.3455 71.4228 92.4692 78.331 96.5957 78.331Z"
    fill="white" />
  <path
    d="M76.8106 59.2458C72.7393 56.6851 64.3758 51.527 64.3758 32.5709C64.3758 27.5049 67.8207 24.0047 72.0209 24.0047C75.3184 24.0047 76.9395 24.9074 76.9395 25.8469C77.3355 25.6149 77.6675 25.288 77.9055 24.8956C78.1435 24.5033 78.28 24.0578 78.3027 23.5994C78.3027 21.923 76.2579 20.3387 72.1867 20.3387C71.346 19.2248 70.2442 18.3347 68.9785 17.7468C67.7128 17.1589 66.3219 16.8913 64.9284 16.9675C57.9465 16.9675 44.9591 26.1785 44.9591 46.3136C44.9591 63.1328 56.6017 71.5332 69.7181 71.5332C70.9492 72.2074 71.9621 73.2192 72.6376 74.4496C73.3132 75.6799 73.6233 77.0776 73.5315 78.4782C73.5315 84.4469 70.584 88.4813 65.7206 88.4813C60.8572 88.4813 57.8913 86.6391 56.7491 85.1101C56.7491 91.0788 62.4231 94.7816 69.1102 94.7816C79.887 94.7816 86.9794 86.9339 86.9794 76.0281C86.9426 66.6514 83.2582 63.2802 76.8106 59.2458Z"
    fill="white" />
  <path style="mix-blend-mode:multiply"
    d="M102.565 72.8229C101.625 71.9202 99.8012 68.8806 99.2854 62.7461C96.8741 64.13 94.1241 64.8127 91.3456 64.7172C91.3456 71.4228 92.4693 78.331 96.5958 78.331C101.109 78.331 102.565 72.8044 102.565 72.8044V72.8229Z"
    fill="url(#paint27_linear_58_359)" />
  <path style="mix-blend-mode:multiply"
    d="M94.6982 76.5441C94.9259 76.8126 95.2077 77.0302 95.5251 77.1825C95.8425 77.3349 96.1885 77.4186 96.5404 77.4283C97.3357 77.4085 98.1126 77.1846 98.7965 76.7781C99.4804 76.3717 100.048 75.7963 100.446 75.1072C100.872 74.4609 101.224 73.7688 101.496 73.0439C100.814 72.1394 100.268 71.1402 99.8748 70.078C99.1662 68.1721 98.6959 66.1859 98.4747 64.1646C97.6855 64.5305 96.8657 64.8264 96.0246 65.0488C94.7713 65.372 93.4864 65.5573 92.1929 65.6015C92.1671 68.3619 92.5141 71.1132 93.2245 73.7808C93.5173 74.7947 94.0193 75.736 94.6982 76.5441Z"
    fill="url(#paint28_linear_58_359)" />
  <path style="mix-blend-mode:multiply"
    d="M65.7207 88.5551C70.5841 88.5551 73.5316 84.5207 73.5316 78.552C73.6235 77.1514 73.3134 75.7537 72.6378 74.5234C71.9623 73.293 70.9494 72.2812 69.7183 71.607C72.552 71.4866 75.309 70.65 77.7318 69.1753C77.7318 69.1753 80.9004 71.2938 80.9004 77.5388C80.9004 85.1286 75.8896 89.9736 70.0315 89.9736C67.5323 90.1133 65.0439 89.5518 62.8469 88.3525L65.7207 88.5551Z"
    fill="url(#paint29_linear_58_359)" />
  <path style="mix-blend-mode:multiply"
    d="M86.9427 53.8295C94.8273 62.0089 107.87 66.0248 107.87 58.6745C107.87 51.3242 105.365 45.7792 102.343 43.0159C97.8485 46.8476 85.1374 43.4028 78.745 35.2971C79.1333 42.2659 82.0477 48.8543 86.9427 53.8295Z"
    fill="url(#paint30_radial_58_359)" />
  <path style="mix-blend-mode:multiply"
    d="M52.3096 63.9616C54.2828 65.9512 56.6224 67.5401 59.1994 68.6408C61.0057 69.4199 62.8979 69.9826 64.8365 70.3172L64.5786 70.0408C62.7452 68.2022 61.0344 66.2453 59.4573 64.1827C57.3555 61.4835 55.5461 58.5688 54.0597 55.4875C52.4023 52.1182 51.3546 48.4822 50.9648 44.7476C50.2279 36.9367 51.3701 30.489 54.3728 25.5888C56.2619 22.475 59.0048 19.9687 62.2758 18.3674C61.2397 18.6708 60.2392 19.0846 59.2915 19.6017C56.9013 20.9325 54.7728 22.6865 53.0096 24.7782C50.8018 27.4032 49.0856 30.4049 47.9436 33.6392C46.5214 37.7434 45.8172 42.0621 45.8619 46.4056C45.8153 49.8799 46.4085 53.3332 47.612 56.5929C48.6578 59.3443 50.2566 61.8522 52.3096 63.9616Z"
    fill="url(#paint31_linear_58_359)" />
  <path style="mix-blend-mode:multiply"
    d="M94.3115 33.7683C92.0747 32.2421 89.6929 30.9402 87.2006 29.8813C85.1484 28.9376 82.9351 28.3936 80.6793 28.2786C79.2055 28.2786 78.2292 28.8128 77.8791 29.7523C76.3686 33.7314 81.5635 37.1211 87.7533 41.3397C90.6317 43.0172 93.9303 43.8355 97.259 43.6977C98.8442 43.7764 100.407 43.3009 101.68 42.3529C101.778 42.2777 101.857 42.1797 101.908 42.0672C101.959 41.9548 101.982 41.8315 101.975 41.7081C101.615 40.4069 100.87 39.2447 99.838 38.3738C98.1602 36.6515 96.3081 35.1081 94.3115 33.7683Z"
    fill="url(#paint32_linear_58_359)" />
  <path style="mix-blend-mode:multiply"
    d="M103.412 72.0674C103.412 72.0674 103.246 72.0674 103.043 71.8832C102.344 71.0812 101.812 70.1481 101.478 69.1383C100.674 66.966 100.19 64.6887 100.041 62.3775C99.9243 60.5371 99.9243 58.6913 100.041 56.8509C100.151 54.8798 100.372 52.7981 100.667 50.8454C100.929 48.566 101.486 46.3304 102.325 44.1951C103.637 45.6018 104.669 47.2462 105.365 49.04C106.435 52.0535 106.941 55.2384 106.857 58.4352C106.872 61.7392 106.438 65.03 105.567 68.2172C104.628 71.3305 103.67 72.0674 103.412 72.0674Z"
    fill="url(#paint33_linear_58_359)" />
  <path style="mix-blend-mode:multiply"
    d="M102.565 72.8229C101.625 71.9202 99.8012 68.8806 99.2854 62.7461C96.8741 64.13 94.1241 64.8127 91.3456 64.7172C91.3456 71.4228 92.4693 78.331 96.5958 78.331C101.109 78.331 102.565 72.8044 102.565 72.8044V72.8229Z"
    fill="url(#paint34_linear_58_359)" />
  <path style="mix-blend-mode:multiply"
    d="M99.2854 62.7461C98.9984 58.6232 99.128 54.4819 99.6723 50.385C94.8642 50.385 91.3456 55.5984 91.3456 64.7172C91.3456 71.4228 92.4693 78.331 96.5958 78.331C101.109 78.331 102.565 72.8045 102.565 72.8045C101.68 71.9202 99.8381 68.8806 99.2854 62.7461Z"
    fill="url(#paint35_radial_58_359)" />
  <path style="mix-blend-mode:multiply"
    d="M99.2854 62.7461C98.9984 58.6233 99.128 54.4819 99.6723 50.3851L102.343 43.0163C102.53 42.8546 102.678 42.6532 102.777 42.4269C102.876 42.2006 102.923 41.9551 102.915 41.7083C102.915 37.6739 88.7849 27.3945 80.6793 27.3945C73.9369 27.3945 81.7478 42.132 71.0447 42.132C69.0552 42.081 67.0751 41.8404 65.1312 41.4136C65.4262 46.2599 67.162 50.9077 70.1159 54.761C73.0699 58.6143 77.1075 61.4975 81.7109 63.0409C84.8452 64.1041 88.1282 64.6637 91.4377 64.6989C94.2145 64.778 96.9601 64.0964 99.3775 62.7277L99.2854 62.7461Z"
    fill="url(#paint36_linear_58_359)" />
  <path style="mix-blend-mode:multiply"
    d="M37.4431 74.0751C37.6935 74.3233 38.0048 74.5012 38.3458 74.5909C38.1203 74.4302 37.9372 74.2171 37.812 73.9701C37.6869 73.723 37.6235 73.4493 37.6273 73.1724C37.6284 72.8817 37.7077 72.5967 37.8567 72.3471C38.0058 72.0976 38.2193 71.8927 38.4747 71.754L37.83 70.3723C37.5067 70.6043 37.2452 70.912 37.0686 71.2685C36.8919 71.625 36.8055 72.0194 36.8168 72.4171C36.8054 72.7213 36.855 73.0246 36.9626 73.3094C37.0701 73.5941 37.2335 73.8544 37.4431 74.0751Z"
    fill="url(#paint37_linear_58_359)" />
  <path style="mix-blend-mode:multiply"
    d="M46.0277 81.1862C46.2728 81.4412 46.5862 81.6203 46.9304 81.702C46.7049 81.5412 46.5217 81.3282 46.3966 81.0812C46.2715 80.8341 46.2081 80.5604 46.2119 80.2835C46.2168 79.9936 46.2976 79.7101 46.4463 79.4612C46.595 79.2123 46.8064 79.0067 47.0593 78.865L46.4146 77.4834C46.089 77.7144 45.8249 78.0215 45.6451 78.3779C45.4653 78.7342 45.3753 79.1291 45.3829 79.5282C45.374 79.8337 45.4265 80.1378 45.5373 80.4226C45.648 80.7073 45.8148 80.967 46.0277 81.1862Z"
    fill="url(#paint38_linear_58_359)" />
  <path style="mix-blend-mode:multiply"
    d="M56.7493 85.1838C56.7493 91.1525 62.4232 94.8553 69.1104 94.8553C71.8957 94.9555 74.6631 94.3695 77.1687 93.1488C79.6744 91.9281 81.8415 90.1102 83.4794 87.855L78.3581 85.8654C77.3576 87.6433 75.9062 89.1261 74.15 90.1643C72.3938 91.2024 70.395 91.7593 68.3551 91.7789C62.11 91.7789 58.352 89.9735 56.7493 85.1838Z"
    fill="url(#paint39_linear_58_359)" />
  <path style="mix-blend-mode:multiply"
    d="M76.8106 59.2458C72.7393 56.6851 64.3758 51.527 64.3758 32.5709C64.3758 27.5049 67.8207 24.0047 72.0209 24.0047C75.3184 24.0047 76.9395 24.9074 76.9395 25.8469C77.3355 25.6149 77.6675 25.288 77.9055 24.8956C78.1435 24.5033 78.28 24.0578 78.3027 23.5994C78.3027 21.923 76.2579 20.3387 72.1867 20.3387C71.346 19.2248 70.2442 18.3347 68.9785 17.7468C67.7128 17.1589 66.3219 16.8913 64.9284 16.9675C57.9465 16.9675 44.9591 26.1785 44.9591 46.3136C44.9591 63.1328 56.6017 71.5332 69.7181 71.5332C72.5454 71.4352 75.3019 70.624 77.7317 69.1752L77.2343 64.1644L76.8106 59.2458Z"
    fill="url(#paint40_linear_58_359)" />
  <path style="mix-blend-mode:multiply"
    d="M69.8472 38.5212C66.4391 38.5212 64.3206 36.679 64.3206 32.5709C64.3206 27.5049 67.7655 24.0047 71.9657 24.0047C75.2632 24.0047 76.8843 24.9074 76.8843 25.8469C76.8843 23.8205 74.8395 22.2915 71.3578 22.2915C64.7627 22.2915 61.2257 26.5101 61.2257 32.6262C61.1936 33.5143 61.3471 34.3994 61.6763 35.225C62.0055 36.0505 62.5032 36.7983 63.1377 37.4206C63.7722 38.0429 64.5294 38.5261 65.3612 38.8393C66.1929 39.1526 67.0808 39.2889 67.9681 39.2396C68.9333 39.2716 69.8941 39.0975 70.7867 38.729C71.6793 38.3606 72.4831 37.8061 73.1447 37.1027C72.7234 37.5548 72.2127 37.9143 71.645 38.1585C71.0773 38.4027 70.4651 38.5262 69.8472 38.5212Z"
    fill="url(#paint41_radial_58_359)" />
  <path style="mix-blend-mode:multiply"
    d="M66.9734 18.3675C68.8156 18.3675 70.142 19.2333 70.142 20.0991C69.9025 20.5781 69.1841 21.0571 67.8577 21.0571C66.291 20.7943 64.8435 20.0544 63.7128 18.9385C64.7534 18.5425 65.8601 18.3486 66.9734 18.3675Z"
    fill="url(#paint42_linear_58_359)" />
  <path
    d="M68.9814 20.5782C69.1985 20.5914 69.4158 20.5552 69.6168 20.4722C69.8178 20.3893 69.9974 20.2617 70.142 20.0993C70.0622 19.8597 69.8987 19.657 69.6815 19.5282C69.6891 19.6198 69.6777 19.712 69.6478 19.799C69.6179 19.8859 69.5703 19.9657 69.5079 20.0333C69.4455 20.1008 69.3698 20.1547 69.2855 20.1914C69.2012 20.2282 69.1102 20.247 69.0183 20.2466C68.917 20.255 68.8151 20.2412 68.7196 20.2062C68.6242 20.1712 68.5375 20.1159 68.4656 20.044C68.3938 19.9721 68.3384 19.8854 68.3034 19.79C68.2684 19.6946 68.2546 19.5927 68.263 19.4913C68.278 19.3605 68.322 19.2346 68.3919 19.1229C68.0936 19.0674 67.7876 19.0674 67.4893 19.1229C67.4811 19.3194 67.5143 19.5154 67.5869 19.6981C67.6595 19.8809 67.7698 20.0463 67.9106 20.1836C68.0513 20.3209 68.2194 20.427 68.404 20.495C68.5885 20.563 68.7852 20.5913 68.9814 20.5782Z"
    fill="white" />
  <defs>
    <linearGradient id="paint0_linear_58_359" x1="96.0983" y1="105.595" x2="96.0983" y2="75.236"
      gradientUnits="userSpaceOnUse">
      <stop offset="0.53" stop-color="white" stop-opacity="0" />
      <stop offset="0.76" stop-color="#C1C2C3" stop-opacity="0.49" />
      <stop offset="1" stop-color="#808184" />
    </linearGradient>
    <radialGradient id="paint1_radial_58_359" cx="0" cy="0" r="1" gradientUnits="userSpaceOnUse"
      gradientTransform="translate(79.9235 88.1129) scale(15.5175 15.3639)">
      <stop stop-color="white" stop-opacity="0" />
      <stop offset="0.14" stop-color="#F8F8F8" stop-opacity="0.06" />
      <stop offset="0.34" stop-color="#E4E4E5" stop-opacity="0.21" />
      <stop offset="0.59" stop-color="#C4C4C6" stop-opacity="0.47" />
      <stop offset="0.87" stop-color="#97989A" stop-opacity="0.82" />
      <stop offset="1" stop-color="#808184" />
    </radialGradient>
    <linearGradient id="paint2_linear_58_359" x1="64.9286" y1="80.1916" x2="74.2685" y2="89.5315"
      gradientUnits="userSpaceOnUse">
      <stop offset="0.06" stop-color="white" stop-opacity="0" />
      <stop offset="0.31" stop-color="#CDCECF" stop-opacity="0.39" />
      <stop offset="0.55" stop-color="#A3A4A6" stop-opacity="0.72" />
      <stop offset="0.74" stop-color="#8A8A8D" stop-opacity="0.92" />
      <stop offset="0.86" stop-color="#808184" />
    </linearGradient>
    <linearGradient id="paint3_linear_58_359" x1="60.9863" y1="84.1522" x2="69.7182" y2="92.8658"
      gradientUnits="userSpaceOnUse">
      <stop offset="0.14" stop-color="#808184" />
      <stop offset="0.26" stop-color="#8A8A8D" stop-opacity="0.92" />
      <stop offset="0.45" stop-color="#A3A4A6" stop-opacity="0.72" />
      <stop offset="0.69" stop-color="#CDCECF" stop-opacity="0.39" />
      <stop offset="0.94" stop-color="white" stop-opacity="0" />
    </linearGradient>
    <radialGradient id="paint4_radial_58_359" cx="0" cy="0" r="1" gradientUnits="userSpaceOnUse"
      gradientTransform="translate(48.0667 101.948) scale(23.7414 23.5063)">
      <stop stop-color="#6D6E70" />
      <stop offset="0.19" stop-color="#ABACAD" stop-opacity="0.57" />
      <stop offset="0.47" stop-color="white" stop-opacity="0" />
    </radialGradient>
    <linearGradient id="paint5_linear_58_359" x1="61.2995" y1="106.572" x2="67.1577" y2="90.4526"
      gradientUnits="userSpaceOnUse">
      <stop offset="0.57" stop-color="white" stop-opacity="0" />
      <stop offset="0.58" stop-color="#FCFCFC" stop-opacity="0.02" />
      <stop offset="0.61" stop-color="#DBDBDC" stop-opacity="0.28" />
      <stop offset="0.64" stop-color="#BFBFC1" stop-opacity="0.5" />
      <stop offset="0.69" stop-color="#A8A8AB" stop-opacity="0.69" />
      <stop offset="0.73" stop-color="#969799" stop-opacity="0.83" />
      <stop offset="0.79" stop-color="#898A8D" stop-opacity="0.93" />
      <stop offset="0.86" stop-color="#828386" stop-opacity="0.98" />
      <stop offset="1" stop-color="#808184" />
    </linearGradient>
    <radialGradient id="paint6_radial_58_359" cx="0" cy="0" r="1" gradientUnits="userSpaceOnUse"
      gradientTransform="translate(48.1224 100.069) scale(28.2627 27.9828)">
      <stop stop-color="#808184" />
      <stop offset="0.1" stop-color="#96979A" stop-opacity="0.82" />
      <stop offset="0.29" stop-color="#BCBCBE" stop-opacity="0.53" />
      <stop offset="0.48" stop-color="#D9D9DA" stop-opacity="0.3" />
      <stop offset="0.66" stop-color="#EEEEEF" stop-opacity="0.13" />
      <stop offset="0.84" stop-color="#FBFBFB" stop-opacity="0.03" />
      <stop offset="1" stop-color="white" stop-opacity="0" />
    </radialGradient>
    <linearGradient id="paint7_linear_58_359" x1="81.0109" y1="112.541" x2="76.608" y2="87.5789"
      gradientUnits="userSpaceOnUse">
      <stop offset="0.58" stop-color="white" stop-opacity="0" />
      <stop offset="0.64" stop-color="#DBDCDC" stop-opacity="0.28" />
      <stop offset="0.71" stop-color="#BBBBBD" stop-opacity="0.54" />
      <stop offset="0.78" stop-color="#A1A2A4" stop-opacity="0.74" />
      <stop offset="0.85" stop-color="#8F8F92" stop-opacity="0.89" />
      <stop offset="0.92" stop-color="#848587" stop-opacity="0.97" />
      <stop offset="1" stop-color="#808184" />
    </linearGradient>
    <radialGradient id="paint8_radial_58_359" cx="0" cy="0" r="1" gradientUnits="userSpaceOnUse"
      gradientTransform="translate(53.816 103.901) scale(42.3661 41.9467)">
      <stop stop-color="#808184" />
      <stop offset="0.1" stop-color="#96979A" stop-opacity="0.82" />
      <stop offset="0.29" stop-color="#BCBCBE" stop-opacity="0.53" />
      <stop offset="0.48" stop-color="#D9D9DA" stop-opacity="0.3" />
      <stop offset="0.66" stop-color="#EEEEEF" stop-opacity="0.13" />
      <stop offset="0.84" stop-color="#FBFBFB" stop-opacity="0.03" />
      <stop offset="1" stop-color="white" stop-opacity="0" />
    </radialGradient>
    <linearGradient id="paint9_linear_58_359" x1="27.7348" y1="105.595" x2="27.7348" y2="75.236"
      gradientUnits="userSpaceOnUse">
      <stop offset="0.53" stop-color="white" stop-opacity="0" />
      <stop offset="0.76" stop-color="#C1C2C3" stop-opacity="0.49" />
      <stop offset="1" stop-color="#808184" />
    </linearGradient>
    <radialGradient id="paint10_radial_58_359" cx="0" cy="0" r="1" gradientUnits="userSpaceOnUse"
      gradientTransform="translate(36.8134 88.1129) rotate(180) scale(15.5175 15.3639)">
      <stop stop-color="white" stop-opacity="0" />
      <stop offset="0.14" stop-color="#F8F8F8" stop-opacity="0.06" />
      <stop offset="0.34" stop-color="#E4E4E5" stop-opacity="0.21" />
      <stop offset="0.59" stop-color="#C4C4C6" stop-opacity="0.47" />
      <stop offset="0.87" stop-color="#97989A" stop-opacity="0.82" />
      <stop offset="1" stop-color="#808184" />
    </radialGradient>
    <linearGradient id="paint11_linear_58_359" x1="25.5978" y1="78.11" x2="28.1953" y2="63.3724"
      gradientUnits="userSpaceOnUse">
      <stop stop-color="white" stop-opacity="0" />
      <stop offset="0.14" stop-color="#F6F6F6" stop-opacity="0.07" />
      <stop offset="0.37" stop-color="#DDDDDE" stop-opacity="0.27" />
      <stop offset="0.67" stop-color="#B4B5B7" stop-opacity="0.59" />
      <stop offset="1" stop-color="#808184" />
    </linearGradient>
    <radialGradient id="paint12_radial_58_359" cx="0" cy="0" r="1" gradientUnits="userSpaceOnUse"
      gradientTransform="translate(47.0061 34.0262) scale(3.60958 3.57385)">
      <stop stop-color="white" stop-opacity="0" />
      <stop offset="0.24" stop-color="#E4E5E5" stop-opacity="0.25" />
      <stop offset="1" stop-color="#929497" />
    </radialGradient>
    <radialGradient id="paint13_radial_58_359" cx="0" cy="0" r="1" gradientUnits="userSpaceOnUse"
      gradientTransform="translate(24.7407 52.4846) rotate(107.526) scale(16.1504 6.30556)">
      <stop stop-color="#808184" />
      <stop offset="0.33" stop-color="#B4B5B7" stop-opacity="0.59" />
      <stop offset="0.63" stop-color="#DDDDDE" stop-opacity="0.27" />
      <stop offset="0.86" stop-color="#F6F6F6" stop-opacity="0.07" />
      <stop offset="1" stop-color="white" stop-opacity="0" />
    </radialGradient>
    <radialGradient id="paint14_radial_58_359" cx="0" cy="0" r="1" gradientUnits="userSpaceOnUse"
      gradientTransform="translate(23.1543 41.0473) rotate(164.445) scale(40.306 24.085)">
      <stop stop-color="#58595B" />
      <stop offset="0.01" stop-color="#616264" stop-opacity="0.94" />
      <stop offset="0.05" stop-color="#929394" stop-opacity="0.65" />
      <stop offset="0.1" stop-color="#BABBBC" stop-opacity="0.41" />
      <stop offset="0.15" stop-color="#D9DADA" stop-opacity="0.23" />
      <stop offset="0.22" stop-color="#EFEFEF" stop-opacity="0.1" />
      <stop offset="0.32" stop-color="#FCFCFC" stop-opacity="0.02" />
      <stop offset="0.59" stop-color="white" stop-opacity="0" />
    </radialGradient>
    <linearGradient id="paint15_linear_58_359" x1="37.9405" y1="44.1027" x2="28.1216" y2="29.8073"
      gradientUnits="userSpaceOnUse">
      <stop offset="0.49" stop-color="white" stop-opacity="0" />
      <stop offset="0.56" stop-color="#FAFAFA" stop-opacity="0.04" />
      <stop offset="0.66" stop-color="#ECEDED" stop-opacity="0.15" />
      <stop offset="0.76" stop-color="#D6D6D7" stop-opacity="0.33" />
      <stop offset="0.86" stop-color="#B6B6B8" stop-opacity="0.58" />
      <stop offset="0.97" stop-color="#8D8E90" stop-opacity="0.9" />
      <stop offset="1" stop-color="#808184" />
    </linearGradient>
    <linearGradient id="paint16_linear_58_359" x1="14.1947" y1="58.0666" x2="30.5902" y2="58.8587"
      gradientUnits="userSpaceOnUse">
      <stop stop-color="#808184" />
      <stop offset="0.07" stop-color="#9B9B9E" stop-opacity="0.79" />
      <stop offset="0.23" stop-color="#D1D1D2" stop-opacity="0.37" />
      <stop offset="0.35" stop-color="#F2F2F3" stop-opacity="0.1" />
      <stop offset="0.41" stop-color="white" stop-opacity="0" />
    </linearGradient>
    <linearGradient id="paint17_linear_58_359" x1="25.3768" y1="79.7311" x2="27.5874" y2="67.1121"
      gradientUnits="userSpaceOnUse">
      <stop stop-color="#808184" />
      <stop offset="0.03" stop-color="#87888B" stop-opacity="0.94" />
      <stop offset="0.26" stop-color="#B2B3B4" stop-opacity="0.61" />
      <stop offset="0.47" stop-color="#D3D4D5" stop-opacity="0.34" />
      <stop offset="0.67" stop-color="#EBECEC" stop-opacity="0.15" />
      <stop offset="0.85" stop-color="#FAFAFA" stop-opacity="0.04" />
      <stop offset="1" stop-color="white" stop-opacity="0" />
    </linearGradient>
    <linearGradient id="paint18_linear_58_359" x1="18.4133" y1="39.663" x2="55.7545" y2="53.2584"
      gradientUnits="userSpaceOnUse">
      <stop offset="0.27" stop-color="white" stop-opacity="0" />
      <stop offset="0.42" stop-color="#F0F0F0" stop-opacity="0.08" />
      <stop offset="0.61" stop-color="#C5C5C6" stop-opacity="0.3" />
      <stop offset="0.81" stop-color="#7F7F80" stop-opacity="0.67" />
      <stop offset="0.95" stop-color="#404041" />
    </linearGradient>
    <linearGradient id="paint19_linear_58_359" x1="47.9252" y1="21.0573" x2="58.2046" y2="21.0573"
      gradientUnits="userSpaceOnUse">
      <stop stop-color="#808184" />
      <stop offset="0.09" stop-color="#8B8C8F" stop-opacity="0.91" />
      <stop offset="0.24" stop-color="#A9AAAC" stop-opacity="0.68" />
      <stop offset="0.44" stop-color="#D9D9DA" stop-opacity="0.3" />
      <stop offset="0.59" stop-color="white" stop-opacity="0" />
    </linearGradient>
    <linearGradient id="paint20_linear_58_359" x1="52.7148" y1="19.2886" x2="61.5574" y2="19.2886"
      gradientUnits="userSpaceOnUse">
      <stop stop-color="#808184" />
      <stop offset="0.09" stop-color="#8B8C8F" stop-opacity="0.91" />
      <stop offset="0.24" stop-color="#A9AAAC" stop-opacity="0.68" />
      <stop offset="0.44" stop-color="#D9D9DA" stop-opacity="0.3" />
      <stop offset="0.59" stop-color="white" stop-opacity="0" />
    </linearGradient>
    <linearGradient id="paint21_linear_58_359" x1="49.3252" y1="74.2963" x2="48.3304" y2="72.5831"
      gradientUnits="userSpaceOnUse">
      <stop stop-color="white" stop-opacity="0" />
      <stop offset="0.27" stop-color="#D1D1D2" stop-opacity="0.34" />
      <stop offset="0.6" stop-color="#A0A1A3" stop-opacity="0.7" />
      <stop offset="0.85" stop-color="#828386" stop-opacity="0.92" />
      <stop offset="1" stop-color="#77787B" />
    </linearGradient>
    <linearGradient id="paint22_linear_58_359" x1="41.3117" y1="76.9678" x2="54.9623" y2="60.7013"
      gradientUnits="userSpaceOnUse">
      <stop offset="0.49" stop-color="white" stop-opacity="0" />
      <stop offset="0.52" stop-color="#E0E0E1" stop-opacity="0.23" />
      <stop offset="0.57" stop-color="#C0C0C2" stop-opacity="0.47" />
      <stop offset="0.62" stop-color="#A5A6A8" stop-opacity="0.66" />
      <stop offset="0.67" stop-color="#909194" stop-opacity="0.81" />
      <stop offset="0.74" stop-color="#828386" stop-opacity="0.92" />
      <stop offset="0.83" stop-color="#797A7D" stop-opacity="0.98" />
      <stop offset="1" stop-color="#77787B" />
    </linearGradient>
    <linearGradient id="paint23_linear_58_359" x1="38.8799" y1="69.378" x2="58.1492" y2="69.378"
      gradientUnits="userSpaceOnUse">
      <stop offset="0.58" stop-color="white" stop-opacity="0" />
      <stop offset="0.64" stop-color="#DBDCDC" stop-opacity="0.28" />
      <stop offset="0.71" stop-color="#BBBBBD" stop-opacity="0.54" />
      <stop offset="0.78" stop-color="#A1A2A4" stop-opacity="0.74" />
      <stop offset="0.85" stop-color="#8F8F92" stop-opacity="0.89" />
      <stop offset="0.92" stop-color="#848587" stop-opacity="0.97" />
      <stop offset="1" stop-color="#808184" />
    </linearGradient>
    <linearGradient id="paint24_linear_58_359" x1="57.9097" y1="81.4074" x2="56.9886" y2="79.8231"
      gradientUnits="userSpaceOnUse">
      <stop stop-color="white" stop-opacity="0" />
      <stop offset="0.27" stop-color="#D1D1D2" stop-opacity="0.34" />
      <stop offset="0.6" stop-color="#A0A1A3" stop-opacity="0.7" />
      <stop offset="0.85" stop-color="#828386" stop-opacity="0.92" />
      <stop offset="1" stop-color="#77787B" />
    </linearGradient>
    <linearGradient id="paint25_linear_58_359" x1="52.5305" y1="85.2024" x2="60.1019" y2="64.4041"
      gradientUnits="userSpaceOnUse">
      <stop offset="0.49" stop-color="white" stop-opacity="0" />
      <stop offset="0.52" stop-color="#E0E0E1" stop-opacity="0.23" />
      <stop offset="0.57" stop-color="#C0C0C2" stop-opacity="0.47" />
      <stop offset="0.62" stop-color="#A5A6A8" stop-opacity="0.66" />
      <stop offset="0.67" stop-color="#909194" stop-opacity="0.81" />
      <stop offset="0.74" stop-color="#828386" stop-opacity="0.92" />
      <stop offset="0.83" stop-color="#797A7D" stop-opacity="0.98" />
      <stop offset="1" stop-color="#77787B" />
    </linearGradient>
    <linearGradient id="paint26_linear_58_359" x1="47.483" y1="75.4756" x2="64.7075" y2="75.4756"
      gradientUnits="userSpaceOnUse">
      <stop offset="0.58" stop-color="white" stop-opacity="0" />
      <stop offset="0.64" stop-color="#DBDCDC" stop-opacity="0.28" />
      <stop offset="0.71" stop-color="#BBBBBD" stop-opacity="0.54" />
      <stop offset="0.78" stop-color="#A1A2A4" stop-opacity="0.74" />
      <stop offset="0.85" stop-color="#8F8F92" stop-opacity="0.89" />
      <stop offset="0.92" stop-color="#848587" stop-opacity="0.97" />
      <stop offset="1" stop-color="#808184" />
    </linearGradient>
    <linearGradient id="paint27_linear_58_359" x1="98.2538" y1="78.11" x2="95.6563" y2="63.3724"
      gradientUnits="userSpaceOnUse">
      <stop stop-color="white" />
      <stop offset="0.08" stop-color="white" stop-opacity="0.73" />
      <stop offset="0.17" stop-color="white" stop-opacity="0.47" />
      <stop offset="0.24" stop-color="white" stop-opacity="0.27" />
      <stop offset="0.31" stop-color="white" stop-opacity="0.12" />
      <stop offset="0.36" stop-color="white" stop-opacity="0.03" />
      <stop offset="0.4" stop-color="white" stop-opacity="0" />
    </linearGradient>
    <linearGradient id="paint28_linear_58_359" x1="98.4563" y1="79.7311" x2="96.2457" y2="67.1121"
      gradientUnits="userSpaceOnUse">
      <stop stop-color="#808184" />
      <stop offset="0.03" stop-color="#87888B" stop-opacity="0.94" />
      <stop offset="0.26" stop-color="#B2B3B4" stop-opacity="0.61" />
      <stop offset="0.47" stop-color="#D3D4D5" stop-opacity="0.34" />
      <stop offset="0.67" stop-color="#EBECEC" stop-opacity="0.15" />
      <stop offset="0.85" stop-color="#FAFAFA" stop-opacity="0.04" />
      <stop offset="1" stop-color="white" stop-opacity="0" />
    </linearGradient>
    <linearGradient id="paint29_linear_58_359" x1="71.9473" y1="89.9736" x2="71.9473" y2="69.1753"
      gradientUnits="userSpaceOnUse">
      <stop stop-color="white" stop-opacity="0" />
      <stop offset="0.13" stop-color="#F6F6F6" stop-opacity="0.07" />
      <stop offset="0.35" stop-color="#DDDDDE" stop-opacity="0.27" />
      <stop offset="0.64" stop-color="#B4B5B7" stop-opacity="0.59" />
      <stop offset="0.95" stop-color="#808184" />
    </linearGradient>
    <radialGradient id="paint30_radial_58_359" cx="0" cy="0" r="1" gradientUnits="userSpaceOnUse"
      gradientTransform="translate(100.435 44.3566) rotate(15.5546) scale(44.8133 26.7784)">
      <stop stop-color="#58595B" />
      <stop offset="0.01" stop-color="#616264" stop-opacity="0.94" />
      <stop offset="0.05" stop-color="#929394" stop-opacity="0.65" />
      <stop offset="0.1" stop-color="#BABBBC" stop-opacity="0.41" />
      <stop offset="0.15" stop-color="#D9DADA" stop-opacity="0.23" />
      <stop offset="0.22" stop-color="#EFEFEF" stop-opacity="0.1" />
      <stop offset="0.32" stop-color="#FCFCFC" stop-opacity="0.02" />
      <stop offset="0.59" stop-color="white" stop-opacity="0" />
    </radialGradient>
    <linearGradient id="paint31_linear_58_359" x1="55.3492" y1="67.0933" x2="55.3492" y2="2.94831"
      gradientUnits="userSpaceOnUse">
      <stop offset="0.29" stop-color="white" stop-opacity="0" />
      <stop offset="0.39" stop-color="#F8F8F8" stop-opacity="0.05" />
      <stop offset="0.53" stop-color="#E5E5E6" stop-opacity="0.2" />
      <stop offset="0.7" stop-color="#C6C6C8" stop-opacity="0.45" />
      <stop offset="0.89" stop-color="#9B9C9E" stop-opacity="0.79" />
      <stop offset="1" stop-color="#808184" />
    </linearGradient>
    <linearGradient id="paint32_linear_58_359" x1="82.4662" y1="48.2847" x2="94.0536" y2="28.997"
      gradientUnits="userSpaceOnUse">
      <stop offset="0.52" stop-color="white" stop-opacity="0" />
      <stop offset="0.59" stop-color="#FAFAFA" stop-opacity="0.04" />
      <stop offset="0.66" stop-color="#ECEDED" stop-opacity="0.15" />
      <stop offset="0.75" stop-color="#D6D6D7" stop-opacity="0.33" />
      <stop offset="0.84" stop-color="#B6B6B8" stop-opacity="0.58" />
      <stop offset="0.93" stop-color="#8D8E90" stop-opacity="0.9" />
      <stop offset="0.96" stop-color="#808184" />
    </linearGradient>
    <linearGradient id="paint33_linear_58_359" x1="108.957" y1="57.8088" x2="92.5614" y2="58.601"
      gradientUnits="userSpaceOnUse">
      <stop stop-color="#808184" />
      <stop offset="0.03" stop-color="#8C8D90" stop-opacity="0.91" />
      <stop offset="0.15" stop-color="#BDBEBF" stop-opacity="0.52" />
      <stop offset="0.26" stop-color="#E1E1E2" stop-opacity="0.24" />
      <stop offset="0.34" stop-color="#F7F7F7" stop-opacity="0.06" />
      <stop offset="0.4" stop-color="white" stop-opacity="0" />
    </linearGradient>
    <linearGradient id="paint34_linear_58_359" x1="98.2538" y1="78.11" x2="95.6563" y2="63.3724"
      gradientUnits="userSpaceOnUse">
      <stop stop-color="white" stop-opacity="0" />
      <stop offset="0.14" stop-color="#F6F6F6" stop-opacity="0.07" />
      <stop offset="0.37" stop-color="#DDDDDE" stop-opacity="0.27" />
      <stop offset="0.67" stop-color="#B4B5B7" stop-opacity="0.59" />
      <stop offset="1" stop-color="#808184" />
    </linearGradient>
    <radialGradient id="paint35_radial_58_359" cx="0" cy="0" r="1" gradientUnits="userSpaceOnUse"
      gradientTransform="translate(101.465 67.7231) rotate(72.4744) scale(16.1504 6.30556)">
      <stop stop-color="#808184" />
      <stop offset="0.33" stop-color="#B4B5B7" stop-opacity="0.59" />
      <stop offset="0.63" stop-color="#DDDDDE" stop-opacity="0.27" />
      <stop offset="0.86" stop-color="#F6F6F6" stop-opacity="0.07" />
      <stop offset="1" stop-color="white" stop-opacity="0" />
    </radialGradient>
    <linearGradient id="paint36_linear_58_359" x1="74.6553" y1="65.1594" x2="91.2351" y2="36.4581"
      gradientUnits="userSpaceOnUse">
      <stop offset="0.05" stop-color="#404041" />
      <stop offset="0.16" stop-color="#7A7A7B" stop-opacity="0.7" />
      <stop offset="0.33" stop-color="#C3C3C3" stop-opacity="0.31" />
      <stop offset="0.48" stop-color="#F0F0F0" stop-opacity="0.08" />
      <stop offset="0.61" stop-color="white" stop-opacity="0" />
    </linearGradient>
    <linearGradient id="paint37_linear_58_359" x1="36.8536" y1="73.1909" x2="38.8063" y2="72.0671"
      gradientUnits="userSpaceOnUse">
      <stop stop-color="#808184" />
      <stop offset="0.05" stop-color="#8C8D90" stop-opacity="0.91" />
      <stop offset="0.26" stop-color="#BDBEBF" stop-opacity="0.52" />
      <stop offset="0.45" stop-color="#E1E1E2" stop-opacity="0.24" />
      <stop offset="0.6" stop-color="#F7F7F7" stop-opacity="0.06" />
      <stop offset="0.7" stop-color="white" stop-opacity="0" />
    </linearGradient>
    <linearGradient id="paint38_linear_58_359" x1="45.4382" y1="80.3204" x2="47.4093" y2="79.1782"
      gradientUnits="userSpaceOnUse">
      <stop stop-color="#808184" />
      <stop offset="0.05" stop-color="#8C8D90" stop-opacity="0.91" />
      <stop offset="0.26" stop-color="#BDBEBF" stop-opacity="0.52" />
      <stop offset="0.45" stop-color="#E1E1E2" stop-opacity="0.24" />
      <stop offset="0.6" stop-color="#F7F7F7" stop-opacity="0.06" />
      <stop offset="0.7" stop-color="white" stop-opacity="0" />
    </linearGradient>
    <linearGradient id="paint39_linear_58_359" x1="61.5574" y1="79.7494" x2="73.4395" y2="91.6131"
      gradientUnits="userSpaceOnUse">
      <stop offset="0.14" stop-color="#808184" />
      <stop offset="0.26" stop-color="#8A8A8D" stop-opacity="0.92" />
      <stop offset="0.45" stop-color="#A3A4A6" stop-opacity="0.72" />
      <stop offset="0.69" stop-color="#CDCECF" stop-opacity="0.39" />
      <stop offset="0.94" stop-color="white" stop-opacity="0" />
    </linearGradient>
    <linearGradient id="paint40_linear_58_359" x1="46.7092" y1="68.5673" x2="70.8603" y2="39.7738"
      gradientUnits="userSpaceOnUse">
      <stop offset="0.05" stop-color="#404041" />
      <stop offset="0.16" stop-color="#7A7A7B" stop-opacity="0.7" />
      <stop offset="0.33" stop-color="#C3C3C3" stop-opacity="0.31" />
      <stop offset="0.48" stop-color="#F0F0F0" stop-opacity="0.08" />
      <stop offset="0.61" stop-color="white" stop-opacity="0" />
    </linearGradient>
    <radialGradient id="paint41_radial_58_359" cx="0" cy="0" r="1" gradientUnits="userSpaceOnUse"
      gradientTransform="translate(59.6954 28.2602) scale(13.8802 13.7427)">
      <stop stop-color="white" stop-opacity="0" />
      <stop offset="0.22" stop-color="#E8E8E9" stop-opacity="0.18" />
      <stop offset="0.68" stop-color="#ADAEAF" stop-opacity="0.65" />
      <stop offset="1" stop-color="#808184" />
    </radialGradient>
    <linearGradient id="paint42_linear_58_359" x1="65.3523" y1="20.8913" x2="68.7235" y2="18.0727"
      gradientUnits="userSpaceOnUse">
      <stop stop-color="white" stop-opacity="0" />
      <stop offset="0.06" stop-color="#F4F4F4" stop-opacity="0.09" />
      <stop offset="0.38" stop-color="#C2C3C4" stop-opacity="0.48" />
      <stop offset="0.65" stop-color="#9E9FA1" stop-opacity="0.76" />
      <stop offset="0.86" stop-color="#88898C" stop-opacity="0.94" />
      <stop offset="1" stop-color="#808184" />
    </linearGradient>
  </defs>
</svg>