<svg width="124" height="124" viewBox="0 0 124 124" fill="none" xmlns="http://www.w3.org/2000/svg">
<path fill-rule="evenodd" clip-rule="evenodd" d="M105.076 41.0773C105.076 41.0773 108.149 40.8542 104.768 37.3913C104.768 37.3913 99.1464 31.2999 88.364 26.6876C82.5844 24.2143 76.0863 25.2441 76.6938 31.2227C77.1214 35.4213 72.8889 37.0254 69.5572 36.641C65.6458 36.1886 63.2955 33.2251 63.9143 30.7858C64.5762 28.1844 66.0595 26.1673 68.2565 24.6018C69.7456 23.5388 70.7846 22.7893 73.4995 22.269C75.1491 21.9525 77.3113 21.46 77.8895 23.1922C79.0227 22.6388 81.0313 19.162 74.5046 19.0994C74.5046 19.0994 73.5281 17.148 71.3334 17.5548C71.3334 17.5548 64.8399 11.6695 57.62 18.9574C57.62 18.9574 54.7855 19.9933 54.6299 18.9929C55.2722 19.463 56.3198 18.0365 54.8884 17.5455C54.2159 17.3132 53.4337 17.9654 53.3119 18.5977C53.2154 19.0871 53.3689 20.1624 54.8001 20.3685C55.1772 20.4225 55.8572 20.3685 55.8572 20.3685L55.3835 20.8857C53.226 21.7418 51.1272 21.0787 50.7362 19.6583C51.2416 19.9293 51.7916 19.5919 51.9686 19.0693C52.1462 18.5421 51.7318 17.8087 50.893 17.696C49.7233 17.5347 49.1676 18.7968 49.4182 19.9061C49.8017 21.6121 51.6604 22.8263 54.0378 22.533L53.6252 23.1066C53.6252 23.1066 51.2422 25.8686 49.2954 29.0065C47.3152 32.1946 39.2512 35.7108 40.6313 28.1172C41.0713 25.7034 36.7149 22.8094 29.1484 27.6247C25.1066 30.1984 20.1438 34.0565 16.4708 40.3038C16.4708 40.3038 14.8181 42.6922 17.5341 42.7671C17.5341 42.7671 11.3254 48.9403 12.0605 56.2899C12.0605 56.2899 12.6133 58.3109 14.0827 57.0263C14.0827 57.0263 11.6944 63.4557 13.1636 68.9682C13.1636 68.9682 13.8984 72.0924 15.7366 70.4382C15.7366 70.4382 17.383 78.2411 20.879 84.7694C23.6363 89.9151 28.7805 97.4494 26.7602 99.2885C24.7574 101.107 21.9302 97.4841 22.3723 98.9438C23.307 102.03 26.7361 102.483 28.596 101.124C33.3748 97.6337 26.3375 89.221 24.1881 78.5239C24.1881 78.5239 25.6563 78.34 25.0595 74.8699C25.0595 74.8699 28.596 76.1342 27.9766 69.1871C27.9766 69.1871 31.7202 71.1745 31.7202 66.3966C31.7202 66.3966 35.5781 67.3148 36.3126 62.1699C36.3126 62.1699 42.6088 63.0839 44.0303 59.5969C44.0303 59.5969 45.6833 61.6181 48.7825 58.3811C49.552 60.592 51.1164 62.5855 53.1648 64.2723C53.1648 64.2723 52.7574 67.3781 49.0696 68.4544C49.0696 68.4544 44.5622 66.6834 39.6944 68.4544C35.2072 70.0842 37.0107 74.5557 40.2677 73.4861C39.2804 72.9931 38.9931 71.5149 40.5882 71.1968C42.1812 72.4087 43.9036 71.7073 44.7331 70.6242C44.7331 70.6242 47.924 72.8544 50.0285 70.5594C51.0486 70.6221 51.6818 72.0562 50.2814 72.7265C53.0025 73.273 53.9823 70.6242 52.8575 69.1871C52.8575 69.1871 53.4941 68.8023 54.2159 68.2451C54.2159 68.2451 55.0674 67.4762 55.7055 66.5755C55.7055 66.5755 58.3844 68.5376 63.3487 69.6379C63.3487 69.6379 60.7557 73.6188 56.9166 74.3862C56.9166 74.3862 51.4683 72.7407 47.7911 74.8699C47.7911 74.8699 45.8108 75.8267 46.1187 77.8578C46.3494 79.3821 47.6578 80.4454 49.6281 80.1983C48.828 79.8311 47.0586 77.9848 49.3075 77.192C50.7931 79.3625 54.7397 77.7981 55.1612 77.1763C55.9166 77.9416 59.2227 77.6311 59.6626 76.4867C60.7207 76.3112 62.2631 76.7943 61.6905 78.6897C62.9702 78.5152 65.0406 76.3543 61.9989 74.6365C61.9989 74.6365 63.8052 73.8121 65.2529 72.6119L67.4475 70.569C67.4475 70.569 70.0736 69.5734 70.0281 72.5903C72.0822 72.3478 73.7867 74.0952 73.3729 76.0121C73.3729 76.0121 72.4829 78.2067 69.2917 77.6371C66.102 77.0653 66.1607 79.6348 68.5236 79.7859C66.9612 80.2228 65.9106 82.9978 71.1335 83.0102C71.1335 83.0102 72.2868 89.3132 65.2729 88.6762C64.4417 88.4843 64.5696 87.7181 64.6657 87.112C65.8118 86.73 65.9414 85.5821 65.3995 85.0384C64.8167 84.4585 63.5401 84.1666 62.5622 85.1979C61.9579 85.8374 61.7393 87.0819 61.9269 88.3288C60.7798 88.0178 60.168 87.5375 60.168 86.6326C61.5077 86.0603 60.5522 83.6679 58.3531 84.5291C57.4614 84.8777 56.8052 85.9445 57.2039 87.6856C57.7391 90.0282 60.946 91.0469 63.5105 91.3396C65.0445 92.6908 67.3742 94.1234 72.821 93.3029C72.821 93.3029 70.4056 105.007 54.3661 104.496C54.3661 104.496 48.1327 102.279 50.0285 97.447C50.4045 96.4854 51.7023 94.8037 53.0098 94.8392C53.0098 94.8392 55.1941 95.5578 55.1941 93.7136C55.1941 93.7136 55.0217 92.3688 53.6252 92.2282C52.2276 92.088 48.879 92.3757 47.3475 96.5843C46.6606 98.477 46.8053 101.566 48.6779 103.704C42.6158 102.214 38.0492 97.9605 39.8856 92.1842C40.8774 89.0688 45.3386 86.0603 48.879 88.165C48.7849 89.6 49.4537 90.7495 51.0802 90.7495C52.4492 90.7495 53.1853 89.5048 52.8976 87.9748C52.6404 86.6046 50.6903 84.7097 47.3475 84.5291C43.8083 84.3373 37.2206 86.3335 36.7288 93.7136C36.275 100.549 40.9458 105.475 52.5532 107.002L52.7037 107.126C52.7037 107.126 59.7679 111.738 69.7533 109.277C69.7533 109.277 89.8708 105.437 85.5695 84.2414C85.5695 84.2414 90.4906 70.395 79.8549 62.3524C79.8549 62.3524 79.6109 60.3776 81.1417 61.986C82.0534 63.1955 85.734 63.8233 85.734 61.2524C85.734 61.2524 89.2278 64.3742 90.4868 61.1996C90.4868 61.1996 91.7968 64.9266 94.4777 62.4284C94.4777 62.4284 93.8169 65.2936 95.1038 66.9478C96.3906 68.6009 98.7805 68.1115 98.7805 68.1115C98.7805 68.1115 95.1038 77.9727 99.5138 78.34C99.5138 78.34 88.4906 100.39 94.8745 103.179C97.09 104.147 99.679 103.674 100.996 101.074C102.085 98.9191 98.5968 103.145 96.5758 101.309C94.1689 99.1226 97.1286 93.7751 100.065 88.2624C104.112 80.6727 106.867 75.09 107.415 71.3579C107.415 71.3579 109.823 72.9388 110.559 67.2422C111.146 62.6859 110.448 59.5158 109.985 56.2899C109.985 56.2899 113.108 58.3109 111.578 51.1681C111.578 51.1681 110.452 45.993 105.076 41.0773ZM66.1769 18.1129C66.4 18.1422 66.6115 18.2001 66.8106 18.2765C66.85 18.3429 66.8724 18.417 66.8724 18.4996C66.8724 18.7513 66.6694 18.9589 66.4162 18.9589C66.1653 18.9589 65.9592 18.7513 65.9592 18.4996C65.9592 18.3352 66.048 18.1955 66.1769 18.1129ZM65.3393 18.153C65.3378 18.1646 65.3316 18.1762 65.3316 18.1878C65.2598 18.803 65.6983 19.3596 66.3127 19.4321C66.857 19.4954 67.3556 19.1565 67.5108 18.6463C67.8219 18.8539 68.0859 19.0855 68.2928 19.2677C67.1055 19.2847 66.911 19.8397 65.8874 19.6483C65.3679 19.551 64.8167 19.0083 64.7867 18.329C65.002 18.2318 65.0722 18.2071 65.3393 18.153ZM81.4327 89.0519C81.4327 89.0519 82.0171 88.0893 82.3266 89.4716C82.3266 89.4716 82.9457 96.9205 78.1875 101.473C75.014 104.507 67.7022 108.846 59.4093 106.953C59.4093 106.953 72.645 106.107 76.0268 93.9727L76.3989 92.6058C76.3989 92.6058 79.7337 91.8399 81.4327 89.0519Z" fill="white"/>
</svg>
