<svg width="124" height="124" viewBox="0 0 124 124" fill="none" xmlns="http://www.w3.org/2000/svg">
<path fill-rule="evenodd" clip-rule="evenodd" d="M25 98.9118H34.3401V83.0439H25V98.9118Z" fill="#CED629"/>
<path fill-rule="evenodd" clip-rule="evenodd" d="M34.3398 98.9118H43.6846V83.0439H34.3398V98.9118Z" fill="#47B9C0"/>
<path fill-rule="evenodd" clip-rule="evenodd" d="M43.6824 98.9118H53.0224V83.0439H43.6824V98.9118Z" fill="#8B3F92"/>
<path fill-rule="evenodd" clip-rule="evenodd" d="M53.0223 98.9118H62.3624V83.0439H53.0223V98.9118Z" fill="#ED8068"/>
<path fill-rule="evenodd" clip-rule="evenodd" d="M62.3649 98.9118H71.7049V83.0439H62.3625L62.3649 98.9118Z" fill="#0080BE"/>
<path fill-rule="evenodd" clip-rule="evenodd" d="M71.7003 98.9118H81.045V83.0439H71.7003V98.9118Z" fill="#F5BF0E"/>
<path fill-rule="evenodd" clip-rule="evenodd" d="M81.0452 98.9118H90.3852V83.0439H81.0452V98.9118Z" fill="#94988D"/>
<path fill-rule="evenodd" clip-rule="evenodd" d="M90.385 98.9118H99.7274V83.0439H90.385V98.9118Z" fill="#F08D1D"/>
<path fill-rule="evenodd" clip-rule="evenodd" d="M31.7844 26H25V69.9984H52.6499V64.2955H31.7844V26ZM92.0677 26V43.0339H71.1453V26H64.3609V69.9984H71.1453V48.7346H92.0677V69.9984H98.8521V26H92.0677Z" fill="#6D7071"/>
</svg>
