<svg width="124" height="124" viewBox="0 0 124 124" fill="none" xmlns="http://www.w3.org/2000/svg">
  <path
    d="M44.4887 39C28.754 39.0157 16.0052 51.8531 16 67.687V79.1807C16 82.3179 18.5274 84.8612 21.6451 84.8612C24.7628 84.8612 27.2902 82.3179 27.2902 79.1807V67.687C27.2902 58.1286 34.9903 50.3801 44.4887 50.3801C53.9873 50.3801 61.6876 58.1286 61.6876 67.687C61.6945 61.7306 64.014 56.0127 68.151 51.7529C62.8738 43.7936 53.9973 39.0095 44.4887 39Z"
    fill="#009DE4" />
  <path
    d="M84.4746 44.7668C78.3193 44.7647 72.4273 47.2798 68.1509 51.735C71.3196 56.4373 73.014 61.9877 73.0153 67.6692C73.1932 61.4109 78.2859 56.4305 84.5074 56.4305C90.7292 56.4305 95.822 61.4109 95.9999 67.6692V79.3994C95.9999 82.5368 98.5274 85.0801 101.645 85.0801C104.763 85.0801 107.29 82.5368 107.29 79.3994V67.688C107.275 55.0207 97.0627 44.7616 84.4746 44.7668Z"
    fill="#AFC800" />
  <path
    d="M61.7251 67.6678V73.4431C61.7251 76.5805 64.2526 79.1238 67.3701 79.1238C70.4879 79.1238 73.0154 76.5805 73.0154 73.4431V67.6678C73.0251 61.9905 71.344 56.4404 68.1888 51.7339C64.0515 55.9937 61.7322 61.7116 61.7251 67.6678Z"
    fill="#008635" />
</svg>