<svg width="124" height="124" viewBox="0 0 124 124" fill="none" xmlns="http://www.w3.org/2000/svg">
<g clip-path="url(#clip0_5_1639)">
<path d="M70.7643 31.162C70.7643 31.162 75.6334 26.2929 70.7643 21.4238L65.8952 16.5547L50.3141 32.1358L60.0523 41.8741L70.7643 31.162ZM88.6177 49.0154C88.6177 49.0154 93.4868 44.1463 88.6177 39.2772L83.7486 34.4081L68.1675 49.9892L77.9057 59.7275L88.6177 49.0154ZM60.0523 46.094L50.3141 55.8322L55.1832 60.7013L65.8952 71.4133L75.6334 61.6751L64.9214 50.9631L60.0523 46.094ZM58.1046 44.1463L48.3664 34.4081L32.7853 49.9892L42.5235 59.7275L47.3926 54.8584L58.1046 44.1463ZM60.0523 81.8008L50.3141 91.539L65.8952 107.12L70.7643 102.251C75.6334 97.3819 71.0889 93.162 70.7643 92.5128L60.0523 81.8008ZM25.6439 57.1306C21.0994 61.9997 25.3193 66.2196 25.6439 66.8688L36.356 77.5809L46.0942 67.8426L30.513 52.2615L25.6439 57.1306ZM68.1675 74.0102L83.7486 89.5913L88.6177 84.7222C93.4868 80.1777 88.9423 75.6332 88.6177 74.984L77.9057 64.272L68.1675 74.0102ZM49.3403 69.1411L38.6282 79.8531L48.3664 89.5913L63.9476 74.0102L54.2094 64.272L49.3403 69.1411Z" fill="#FF7300"/>
<path d="M62 124C27.9162 124 0 96.0838 0 62C0 27.9162 27.9162 0 62 0C96.0838 0 124 27.9162 124 62C124 96.0838 96.0838 124 62 124ZM62 9.08901C32.7853 9.08901 9.089 32.7853 9.089 62C9.089 91.2147 32.7853 114.911 62 114.911C91.2147 114.911 114.911 91.2147 114.911 62C114.911 32.7853 91.2147 9.08901 62 9.08901Z" fill="#0047B6"/>
</g>
<defs>
<clipPath id="clip0_5_1639">
<rect width="124" height="124" fill="white"/>
</clipPath>
</defs>
</svg>
