<svg width="124" height="124" viewBox="0 0 124 124" fill="none" xmlns="http://www.w3.org/2000/svg">
<g clip-path="url(#clip0_97_32)">
<path d="M54.5742 58.1663C54.5742 48.7829 48.5305 41.178 36.8673 41.178C25.2042 41.178 18.6 48.7841 18.6 58.1663V85.3136C18.6 87.8463 20.5506 89.9001 22.9567 89.9001C25.3627 89.9001 27.6901 87.8463 27.6901 85.3136V58.8244C27.6901 54.1815 31.323 49.7888 36.8673 49.7888C42.4117 49.7888 45.464 54.1815 45.464 58.8244V81.4228C45.464 83.9552 47.8128 86.0089 50.2175 86.0089C52.6225 86.0089 54.5742 83.9552 54.5742 81.4228C54.5742 81.4228 54.5742 58.1771 54.5742 58.1663Z" fill="#EC0000"/>
<path d="M81.4525 58.1663C81.4525 48.7829 75.4088 41.178 63.7456 41.178C52.0825 41.178 45.4783 48.7841 45.4783 58.1663V85.3136C45.4783 87.8463 47.4288 89.9001 49.835 89.9001C52.2409 89.9001 54.5684 87.8463 54.5684 85.3136V58.8244C54.5684 54.1815 58.2013 49.7888 63.7456 49.7888C69.29 49.7888 72.3423 54.1815 72.3423 58.8244V85.1465C72.3423 87.6789 74.6911 89.7327 77.0958 89.7327C79.5008 89.7327 81.4525 87.6789 81.4525 85.1465C81.4525 85.1465 81.4525 58.1759 81.4525 58.1663Z" fill="url(#paint0_linear_97_32)"/>
<path fill-rule="evenodd" clip-rule="evenodd" d="M98.9351 52.2025H104.312C106.615 52.2025 108.5 50.3004 108.5 47.9769C108.5 45.6501 106.615 43.7516 104.312 43.7516H98.9351V38.3254C98.9351 35.9985 97.05 34.1001 94.748 34.1001C92.4456 34.1001 90.5605 35.9998 90.5605 38.3254V43.7516H88.2544H94.748C95.8733 43.7516 96.9025 44.2064 97.6545 44.9451C98.4441 45.7152 98.9351 46.7896 98.9351 47.9769V52.2025Z" fill="url(#paint1_linear_97_32)"/>
<path fill-rule="evenodd" clip-rule="evenodd" d="M98.9351 52.2018H100.203V47.9765C100.203 46.4811 99.5982 45.0638 98.5359 44.0253C97.5175 43.028 96.1665 42.4722 94.748 42.4722H90.5605V43.7509H88.2544H94.748C95.8733 43.7509 96.9025 44.2057 97.6545 44.9444C98.4441 45.7145 98.9351 46.7889 98.9351 47.9765V52.2018Z" fill="#FFDC00"/>
<path fill-rule="evenodd" clip-rule="evenodd" d="M90.5596 52.2018V57.6281C90.5596 59.9512 92.4447 61.8534 94.7471 61.8534C97.0495 61.8534 98.9346 59.9512 98.9346 57.6281V47.9765C98.9346 46.7892 98.4432 45.7148 97.654 44.9447C96.9016 44.206 95.8727 43.7512 94.7471 43.7512H85.1824C82.8766 43.7512 80.9949 45.6509 80.9949 47.9765C80.9949 50.2997 82.8775 52.2018 85.1824 52.2018H90.5596Z" fill="url(#paint2_linear_97_32)"/>
</g>
<defs>
<linearGradient id="paint0_linear_97_32" x1="63.4654" y1="91.6819" x2="63.4654" y2="44.6249" gradientUnits="userSpaceOnUse">
<stop stop-color="#FF0000"/>
<stop offset="0.11" stop-color="#FF2900"/>
<stop offset="0.23" stop-color="#FF5000"/>
<stop offset="0.35" stop-color="#FF6E00"/>
<stop offset="0.47" stop-color="#FF8400"/>
<stop offset="0.59" stop-color="#FF9100"/>
<stop offset="0.69" stop-color="#FF9600"/>
</linearGradient>
<linearGradient id="paint1_linear_97_32" x1="108.501" y1="43.1499" x2="88.2544" y2="43.1499" gradientUnits="userSpaceOnUse">
<stop offset="0.23" stop-color="#FF0000"/>
<stop offset="0.53" stop-color="#FF3600"/>
<stop offset="1" stop-color="#FF9600"/>
</linearGradient>
<linearGradient id="paint2_linear_97_32" x1="102.741" y1="60.5951" x2="69.5469" y2="28.8205" gradientUnits="userSpaceOnUse">
<stop offset="0.23" stop-color="#FF0000"/>
<stop offset="0.33" stop-color="#FF0B00"/>
<stop offset="0.49" stop-color="#FF2800"/>
<stop offset="0.71" stop-color="#FF5800"/>
<stop offset="0.96" stop-color="#FF9600"/>
</linearGradient>
<clipPath id="clip0_97_32">
<rect width="124" height="124" fill="white"/>
</clipPath>
</defs>
</svg>
