<svg width="124" height="124" viewBox="0 0 124 124" fill="none" xmlns="http://www.w3.org/2000/svg">
<path d="M43.3073 65.7783C43.3073 68.2785 42.3142 70.6761 40.5461 72.4441C38.7783 74.212 36.3806 75.2051 33.8804 75.2051C31.3803 75.2051 28.9826 74.212 27.2147 72.4441C25.4469 70.6761 24.4537 68.2785 24.4537 65.7783V56.3516H33.8804V46.9248H24.4537V37.498H15.0269V65.7783C14.8901 68.3354 15.2756 70.8934 16.1599 73.2966C17.0443 75.6998 18.4089 77.8976 20.1705 79.7561C21.9322 81.6146 24.054 83.0946 26.4065 84.1061C28.7589 85.1176 31.2928 85.6393 33.8535 85.6393C36.4142 85.6393 38.9481 85.1176 41.3005 84.1061C43.6532 83.0946 45.7749 81.6146 47.5366 79.7561C49.2981 77.8976 50.6627 75.6998 51.5471 73.2966C52.4315 70.8934 52.8168 68.3354 52.68 65.7783H43.3073Z" fill="#0050F0"/>
<path d="M71.6083 65.7447C71.6083 68.245 70.6152 70.6425 68.8474 72.4106C67.0796 74.1784 64.6817 75.1716 62.1817 75.1716C59.6815 75.1716 57.2839 74.1784 55.5159 72.4106C53.7481 70.6425 52.7549 68.245 52.7549 65.7447V56.318H62.1817V46.8912H52.7549V37.4645H43.3281V65.7447C43.1912 68.3018 43.5769 70.8599 44.4613 73.263C45.3454 75.6662 46.71 77.864 48.4717 79.7225C50.2334 81.5811 52.3552 83.0611 54.7076 84.0725C57.0603 85.084 59.5939 85.6057 62.1547 85.6057C64.7154 85.6057 67.2493 85.084 69.6017 84.0725C71.9542 83.0611 74.0761 81.5811 75.8378 79.7225C77.5993 77.864 78.9639 75.6662 79.8483 73.263C80.7327 70.8599 81.1181 68.3018 80.9813 65.7447H71.6083Z" fill="#F68B1F"/>
<path d="M90.7317 47.0674C87.3492 47.0592 84.0251 47.9449 81.0975 49.6346V37.4645H71.4634V66.2938C71.4634 70.095 72.5934 73.8108 74.7107 76.9716C76.828 80.1321 79.8373 82.5957 83.358 84.0503C86.8787 85.505 90.7531 85.8855 94.4907 85.144C98.2285 84.4023 101.662 82.5718 104.356 79.884C107.051 77.1962 108.886 73.7716 109.63 70.0433C110.373 66.315 109.992 62.4506 108.533 58.9388C107.075 55.4268 104.605 52.4252 101.437 50.3133C98.268 48.2014 94.5427 47.0742 90.7317 47.0742V47.0674ZM90.7317 75.8623C88.8263 75.8623 86.9636 75.2986 85.3792 74.2428C83.7948 73.1869 82.56 71.6859 81.8309 69.9301C81.1017 68.174 80.9109 66.2418 81.2826 64.3779C81.6544 62.5138 82.5719 60.8014 83.9192 59.4574C85.2666 58.1135 86.9834 57.1982 88.8522 56.8275C90.7209 56.4567 92.658 56.647 94.4185 57.3743C96.179 58.1017 97.6836 59.3334 98.7422 60.9137C99.8007 62.494 100.366 64.352 100.366 66.2525C100.366 68.8013 99.3507 71.2455 97.5441 73.0477C95.7373 74.8499 93.2868 75.8623 90.7317 75.8623Z" fill="#002D63"/>
</svg>
