<svg width="124" height="124" viewBox="0 0 124 124" fill="none" xmlns="http://www.w3.org/2000/svg">
<path d="M96.0466 58C95.6607 58 95.2989 57.988 94.9251 57.988H87.3405V28.003C87.3646 26.2159 85.0856 26 83.7109 26H82.9754C81.6007 26 79.3338 26.2159 79.3579 28.003C79.3579 28.3868 79.3579 28.7466 79.3579 29.1304V57.988H73.1479V28.003C73.172 26.2159 70.893 26 69.5183 26H68.7828C67.4081 26 65.1412 26.2159 65.1653 28.003C65.1653 28.3868 65.1532 28.7466 65.1532 29.1304V57.988H58.9432V28.003C58.9673 26.2159 56.6883 26 55.3137 26H54.5781C53.2035 26 50.9365 26.2159 50.9486 28.003C50.9486 28.3868 50.9486 28.7466 50.9486 29.1304V57.988H44.7386V28.003C44.7627 26.2159 42.4837 26 41.109 26H40.3735C38.9988 26 36.7319 26.2159 36.756 28.003C36.756 28.3868 36.7439 28.7466 36.7439 29.1304V57.988H29.111C29.111 57.988 29.0266 57.988 28.9302 58H27.9896C26.1929 57.976 26 60.2429 26 61.6222V62.3658C26 62.4978 26 62.6057 26.0121 62.7616C26.1809 66 27.3988 65.976 27.9776 65.976C28.279 65.976 28.5925 65.976 28.9543 65.976H36.6957V94.8456C36.6957 94.8456 36.6957 94.9295 36.7078 95.0255V95.973C36.6836 97.7721 38.9506 97.964 40.3252 97.964H41.0608C41.1934 97.964 41.314 97.964 41.4708 97.94C44.7145 97.7721 44.6903 96.5487 44.6903 95.973C44.6903 95.6732 44.6903 95.3493 44.6903 95.0015V65.988H50.9004V94.8576C50.9004 94.8576 50.9004 94.9415 50.9004 95.0375V95.985C50.8883 97.7841 53.1553 97.976 54.5299 97.976H55.2654C55.3981 97.976 55.5066 97.976 55.6754 97.952C58.9191 97.7841 58.895 96.5607 58.895 95.985C58.895 95.6852 58.895 95.3613 58.895 95.0135V66H65.105V94.8696C65.105 94.8696 65.105 94.9535 65.1171 95.0495V95.997C65.0929 97.7961 67.3599 97.988 68.7345 97.988H69.4701C69.6027 97.988 69.7113 97.988 69.868 97.964C73.1238 97.7961 73.0876 96.5727 73.0876 95.997C73.0876 95.6972 73.0876 95.3733 73.0876 95.0255V66.012H79.2976V94.8816C79.2976 94.8816 79.2976 94.9655 79.2976 95.0615V96.009C79.2735 97.8081 81.5525 98 82.9151 98H83.6506C83.7833 98 83.8918 98 84.0606 97.976C87.3043 97.8081 87.2802 96.5847 87.2802 96.009C87.2802 95.7091 87.2802 95.3853 87.2802 95.0375V66.024H95.9983C97.795 66.048 98 63.7691 98 62.4018V61.6582C98 60.2789 97.795 58.012 95.9983 58.036L96.0466 58Z" fill="#F5333F"/>
</svg>
